<svg height="512pt" viewBox="-31 0 512 512" width="512pt" xmlns="http://www.w3.org/2000/svg"><path d="m417.390625 222.550781-212.722656-20.019531 20.015625 309.46875h160.734375zm0 0" fill="#ff4c04"/><path d="m350.015625 51.914062-62.667969-5.941406-62.664062-45.972656-20.015625 178.617188 189.535156-20.015626zm0 0" fill="#efe2dd"/><path d="m350.015625 51.914062-88.625 36.707032-36.707031-88.621094zm0 0" fill="#b4aaaa"/><path d="m224.683594 0-168.34375 69.730469 36.8125 88.871093 131.53125 20.015626zm0 0" fill="#fff5f5"/><path d="m31.972656 222.550781 31.976563 289.449219h160.734375v-309.46875zm0 0" fill="#ff9f22"/><path d="m449.367188 158.601562h-224.683594l-20.015625 32.753907 20.015625 31.195312h224.683594zm0 0" fill="#e30000"/><path d="m0 158.601562h224.683594v63.949219h-224.683594zm0 0" fill="#ff4c04"/></svg>