<?xml version="1.0" encoding="UTF-8" standalone="no"?>
<!DOCTYPE svg PUBLIC "-//W3C//DTD SVG 1.1//EN"
 "http://www.w3.org/Graphics/SVG/1.1/DTD/svg11.dtd">
<!-- Generated by graphviz version 2.40.1 (20161225.0304)
 -->
<!-- Title: dependencies Pages: 1 -->
<svg width="504pt" height="211pt"
 viewBox="0.00 0.00 504.00 211.00" xmlns="http://www.w3.org/2000/svg" xmlns:xlink="http://www.w3.org/1999/xlink">
<g id="graph0" class="graph" transform="scale(1 1) rotate(0) translate(4 207)">
<title>dependencies</title>
<polygon fill="#ffffff" stroke="transparent" points="-4,4 -4,-207 500,-207 500,4 -4,4"/>
<text text-anchor="start" x="227.0091" y="-42.4" font-family="sans-serif" font-weight="bold" font-size="14.00" fill="#000000">Legend</text>
<polygon fill="#ffffb3" stroke="transparent" points="14,-10 14,-30 34,-30 34,-10 14,-10"/>
<text text-anchor="start" x="37.629" y="-15.4" font-family="sans-serif" font-size="14.00" fill="#000000"> &#160;Declarations</text>
<polygon fill="#8dd3c7" stroke="transparent" points="127,-10 127,-30 147,-30 147,-10 127,-10"/>
<text text-anchor="start" x="150.7251" y="-15.4" font-family="sans-serif" font-size="14.00" fill="#000000"> &#160;Module</text>
<polygon fill="#80b1d3" stroke="transparent" points="213,-10 213,-30 233,-30 233,-10 213,-10"/>
<text text-anchor="start" x="236.7812" y="-15.4" font-family="sans-serif" font-size="14.00" fill="#000000"> &#160;Bootstrap</text>
<polygon fill="#fdb462" stroke="transparent" points="310,-10 310,-30 330,-30 330,-10 310,-10"/>
<text text-anchor="start" x="333.6732" y="-15.4" font-family="sans-serif" font-size="14.00" fill="#000000"> &#160;Providers</text>
<polygon fill="#fb8072" stroke="transparent" points="406,-10 406,-30 426,-30 426,-10 406,-10"/>
<text text-anchor="start" x="429.7258" y="-15.4" font-family="sans-serif" font-size="14.00" fill="#000000"> &#160;Exports</text>
<g id="clust1" class="cluster">
<title>cluster_RestaurantmenuModule</title>
<polygon fill="none" stroke="#000000" stroke-dasharray="1,5" points="25,-70 25,-195 471,-195 471,-70 25,-70"/>
</g>
<g id="clust2" class="cluster">
<title>cluster_RestaurantmenuModule_declarations</title>
<polygon fill="none" stroke="#000000" points="33,-78 33,-130 463,-130 463,-78 33,-78"/>
</g>
<!-- AddmenuComponent -->
<g id="node1" class="node">
<title>AddmenuComponent</title>
<polygon fill="#ffffb3" stroke="#000000" points="455.045,-122 318.955,-122 318.955,-86 455.045,-86 455.045,-122"/>
<text text-anchor="middle" x="387" y="-99.8" font-family="Times,serif" font-size="14.00" fill="#000000">AddmenuComponent</text>
</g>
<!-- RestaurantmenuModule -->
<g id="node4" class="node">
<title>RestaurantmenuModule</title>
<polygon fill="#8dd3c7" stroke="#000000" points="341.0226,-187 338.0226,-191 317.0226,-191 314.0226,-187 190.9774,-187 190.9774,-151 341.0226,-151 341.0226,-187"/>
<text text-anchor="middle" x="266" y="-164.8" font-family="Times,serif" font-size="14.00" fill="#000000">RestaurantmenuModule</text>
</g>
<!-- AddmenuComponent&#45;&gt;RestaurantmenuModule -->
<g id="edge1" class="edge">
<title>AddmenuComponent&#45;&gt;RestaurantmenuModule</title>
<path fill="none" stroke="#000000" d="M329.9944,-122.1061C329.9944,-122.1061 329.9944,-140.991 329.9944,-140.991"/>
<polygon fill="#000000" stroke="#000000" points="326.4945,-140.9909 329.9944,-150.991 333.4945,-140.991 326.4945,-140.9909"/>
</g>
<!-- PricePipe -->
<g id="node2" class="node">
<title>PricePipe</title>
<polygon fill="#ffffb3" stroke="#000000" points="300.6517,-122 231.3483,-122 231.3483,-86 300.6517,-86 300.6517,-122"/>
<text text-anchor="middle" x="266" y="-99.8" font-family="Times,serif" font-size="14.00" fill="#000000">PricePipe</text>
</g>
<!-- PricePipe&#45;&gt;RestaurantmenuModule -->
<g id="edge2" class="edge">
<title>PricePipe&#45;&gt;RestaurantmenuModule</title>
<path fill="none" stroke="#000000" d="M266,-122.1061C266,-122.1061 266,-140.991 266,-140.991"/>
<polygon fill="#000000" stroke="#000000" points="262.5001,-140.9909 266,-150.991 269.5001,-140.991 262.5001,-140.9909"/>
</g>
<!-- RestaurantmenuComponent -->
<g id="node3" class="node">
<title>RestaurantmenuComponent</title>
<polygon fill="#ffffb3" stroke="#000000" points="213.3047,-122 40.6953,-122 40.6953,-86 213.3047,-86 213.3047,-122"/>
<text text-anchor="middle" x="127" y="-99.8" font-family="Times,serif" font-size="14.00" fill="#000000">RestaurantmenuComponent</text>
</g>
<!-- RestaurantmenuComponent&#45;&gt;RestaurantmenuModule -->
<g id="edge3" class="edge">
<title>RestaurantmenuComponent&#45;&gt;RestaurantmenuModule</title>
<path fill="none" stroke="#000000" d="M201.9457,-122.1061C201.9457,-122.1061 201.9457,-140.991 201.9457,-140.991"/>
<polygon fill="#000000" stroke="#000000" points="198.4457,-140.9909 201.9457,-150.991 205.4457,-140.991 198.4457,-140.9909"/>
</g>
</g>
</svg>
