<?xml version="1.0" encoding="UTF-8" standalone="no"?>
<!DOCTYPE svg PUBLIC "-//W3C//DTD SVG 1.1//EN"
 "http://www.w3.org/Graphics/SVG/1.1/DTD/svg11.dtd">
<!-- Generated by graphviz version 2.40.1 (20161225.0304)
 -->
<!-- Title: dependencies Pages: 1 -->
<svg width="504pt" height="211pt"
 viewBox="0.00 0.00 504.00 211.00" xmlns="http://www.w3.org/2000/svg" xmlns:xlink="http://www.w3.org/1999/xlink">
<g id="graph0" class="graph" transform="scale(1 1) rotate(0) translate(4 207)">
<title>dependencies</title>
<polygon fill="#ffffff" stroke="transparent" points="-4,4 -4,-207 500,-207 500,4 -4,4"/>
<text text-anchor="start" x="227.0091" y="-42.4" font-family="sans-serif" font-weight="bold" font-size="14.00" fill="#000000">Legend</text>
<polygon fill="#ffffb3" stroke="transparent" points="14,-10 14,-30 34,-30 34,-10 14,-10"/>
<text text-anchor="start" x="37.629" y="-15.4" font-family="sans-serif" font-size="14.00" fill="#000000"> &#160;Declarations</text>
<polygon fill="#8dd3c7" stroke="transparent" points="127,-10 127,-30 147,-30 147,-10 127,-10"/>
<text text-anchor="start" x="150.7251" y="-15.4" font-family="sans-serif" font-size="14.00" fill="#000000"> &#160;Module</text>
<polygon fill="#80b1d3" stroke="transparent" points="213,-10 213,-30 233,-30 233,-10 213,-10"/>
<text text-anchor="start" x="236.7812" y="-15.4" font-family="sans-serif" font-size="14.00" fill="#000000"> &#160;Bootstrap</text>
<polygon fill="#fdb462" stroke="transparent" points="310,-10 310,-30 330,-30 330,-10 310,-10"/>
<text text-anchor="start" x="333.6732" y="-15.4" font-family="sans-serif" font-size="14.00" fill="#000000"> &#160;Providers</text>
<polygon fill="#fb8072" stroke="transparent" points="406,-10 406,-30 426,-30 426,-10 406,-10"/>
<text text-anchor="start" x="429.7258" y="-15.4" font-family="sans-serif" font-size="14.00" fill="#000000"> &#160;Exports</text>
<g id="clust1" class="cluster">
<title>cluster_StockModule</title>
<polygon fill="none" stroke="#000000" stroke-dasharray="1,5" points="92.5,-70 92.5,-195 403.5,-195 403.5,-70 92.5,-70"/>
</g>
<g id="clust2" class="cluster">
<title>cluster_StockModule_declarations</title>
<polygon fill="none" stroke="#000000" points="100.5,-78 100.5,-130 395.5,-130 395.5,-78 100.5,-78"/>
</g>
<!-- DetailStockComponent -->
<g id="node1" class="node">
<title>DetailStockComponent</title>
<polygon fill="#ffffb3" stroke="#000000" points="387.4284,-122 239.5716,-122 239.5716,-86 387.4284,-86 387.4284,-122"/>
<text text-anchor="middle" x="313.5" y="-99.8" font-family="Times,serif" font-size="14.00" fill="#000000">DetailStockComponent</text>
</g>
<!-- StockModule -->
<g id="node3" class="node">
<title>StockModule</title>
<polygon fill="#8dd3c7" stroke="#000000" points="285.4387,-187 282.4387,-191 261.4387,-191 258.4387,-187 193.5613,-187 193.5613,-151 285.4387,-151 285.4387,-187"/>
<text text-anchor="middle" x="239.5" y="-164.8" font-family="Times,serif" font-size="14.00" fill="#000000">StockModule</text>
</g>
<!-- DetailStockComponent&#45;&gt;StockModule -->
<g id="edge1" class="edge">
<title>DetailStockComponent&#45;&gt;StockModule</title>
<path fill="none" stroke="#000000" d="M262.5025,-122.1061C262.5025,-122.1061 262.5025,-140.991 262.5025,-140.991"/>
<polygon fill="#000000" stroke="#000000" points="259.0025,-140.9909 262.5025,-150.991 266.0025,-140.991 259.0025,-140.9909"/>
</g>
<!-- StockComponent -->
<g id="node2" class="node">
<title>StockComponent</title>
<polygon fill="#ffffb3" stroke="#000000" points="222.2204,-122 108.7796,-122 108.7796,-86 222.2204,-86 222.2204,-122"/>
<text text-anchor="middle" x="165.5" y="-99.8" font-family="Times,serif" font-size="14.00" fill="#000000">StockComponent</text>
</g>
<!-- StockComponent&#45;&gt;StockModule -->
<g id="edge2" class="edge">
<title>StockComponent&#45;&gt;StockModule</title>
<path fill="none" stroke="#000000" d="M207.9457,-122.1061C207.9457,-122.1061 207.9457,-140.991 207.9457,-140.991"/>
<polygon fill="#000000" stroke="#000000" points="204.4457,-140.9909 207.9457,-150.991 211.4457,-140.991 204.4457,-140.9909"/>
</g>
</g>
</svg>
