<?xml version="1.0" encoding="UTF-8" standalone="no"?>
<!DOCTYPE svg PUBLIC "-//W3C//DTD SVG 1.1//EN"
 "http://www.w3.org/Graphics/SVG/1.1/DTD/svg11.dtd">
<!-- Generated by graphviz version 2.40.1 (20161225.0304)
 -->
<!-- Title: dependencies Pages: 1 -->
<svg width="852pt" height="284pt"
 viewBox="0.00 0.00 852.00 284.00" xmlns="http://www.w3.org/2000/svg" xmlns:xlink="http://www.w3.org/1999/xlink">
<g id="graph0" class="graph" transform="scale(1 1) rotate(0) translate(4 280)">
<title>dependencies</title>
<polygon fill="#ffffff" stroke="transparent" points="-4,4 -4,-280 848,-280 848,4 -4,4"/>
<text text-anchor="start" x="401.0091" y="-42.4" font-family="sans-serif" font-weight="bold" font-size="14.00" fill="#000000">Legend</text>
<polygon fill="#ffffb3" stroke="transparent" points="188,-10 188,-30 208,-30 208,-10 188,-10"/>
<text text-anchor="start" x="211.629" y="-15.4" font-family="sans-serif" font-size="14.00" fill="#000000"> &#160;Declarations</text>
<polygon fill="#8dd3c7" stroke="transparent" points="301,-10 301,-30 321,-30 321,-10 301,-10"/>
<text text-anchor="start" x="324.7251" y="-15.4" font-family="sans-serif" font-size="14.00" fill="#000000"> &#160;Module</text>
<polygon fill="#80b1d3" stroke="transparent" points="387,-10 387,-30 407,-30 407,-10 387,-10"/>
<text text-anchor="start" x="410.7812" y="-15.4" font-family="sans-serif" font-size="14.00" fill="#000000"> &#160;Bootstrap</text>
<polygon fill="#fdb462" stroke="transparent" points="484,-10 484,-30 504,-30 504,-10 484,-10"/>
<text text-anchor="start" x="507.6732" y="-15.4" font-family="sans-serif" font-size="14.00" fill="#000000"> &#160;Providers</text>
<polygon fill="#fb8072" stroke="transparent" points="580,-10 580,-30 600,-30 600,-10 580,-10"/>
<text text-anchor="start" x="603.7258" y="-15.4" font-family="sans-serif" font-size="14.00" fill="#000000"> &#160;Exports</text>
<g id="clust1" class="cluster">
<title>cluster_CalendarModule</title>
<polygon fill="none" stroke="#000000" stroke-dasharray="1,5" points="8,-70 8,-268 836,-268 836,-70 8,-70"/>
</g>
<g id="clust2" class="cluster">
<title>cluster_CalendarModule_declarations</title>
<polygon fill="none" stroke="#000000" points="496,-78 496,-130 828,-130 828,-78 496,-78"/>
</g>
<g id="clust5" class="cluster">
<title>cluster_CalendarModule_imports</title>
<polygon fill="none" stroke="#000000" points="190,-78 190,-130 488,-130 488,-78 190,-78"/>
</g>
<g id="clust6" class="cluster">
<title>cluster_CalendarModule_exports</title>
<polygon fill="none" stroke="#000000" points="224,-208 224,-260 563,-260 563,-208 224,-208"/>
</g>
<g id="clust8" class="cluster">
<title>cluster_CalendarModule_providers</title>
<polygon fill="none" stroke="#000000" points="16,-78 16,-130 182,-130 182,-78 16,-78"/>
</g>
<!-- CalendarComponent -->
<g id="node1" class="node">
<title>CalendarComponent</title>
<polygon fill="#ffffb3" stroke="#000000" points="819.8641,-122 688.1359,-122 688.1359,-86 819.8641,-86 819.8641,-122"/>
<text text-anchor="middle" x="754" y="-99.8" font-family="Times,serif" font-size="14.00" fill="#000000">CalendarComponent</text>
</g>
<!-- CalendarModule -->
<g id="node3" class="node">
<title>CalendarModule</title>
<polygon fill="#8dd3c7" stroke="#000000" points="457.0814,-187 454.0814,-191 433.0814,-191 430.0814,-187 346.9186,-187 346.9186,-151 457.0814,-151 457.0814,-187"/>
<text text-anchor="middle" x="402" y="-164.8" font-family="Times,serif" font-size="14.00" fill="#000000">CalendarModule</text>
</g>
<!-- CalendarComponent&#45;&gt;CalendarModule -->
<g id="edge1" class="edge">
<title>CalendarComponent&#45;&gt;CalendarModule</title>
<path fill="none" stroke="#000000" d="M754,-122.2843C754,-143.3211 754,-175 754,-175 754,-175 467.3872,-175 467.3872,-175"/>
<polygon fill="#000000" stroke="#000000" points="467.3873,-171.5001 457.3872,-175 467.3872,-178.5001 467.3873,-171.5001"/>
</g>
<!-- CalendarDetailComponent -->
<g id="node2" class="node">
<title>CalendarDetailComponent</title>
<polygon fill="#ffffb3" stroke="#000000" points="670.0716,-122 503.9284,-122 503.9284,-86 670.0716,-86 670.0716,-122"/>
<text text-anchor="middle" x="587" y="-99.8" font-family="Times,serif" font-size="14.00" fill="#000000">CalendarDetailComponent</text>
</g>
<!-- CalendarDetailComponent&#45;&gt;CalendarModule -->
<g id="edge2" class="edge">
<title>CalendarDetailComponent&#45;&gt;CalendarModule</title>
<path fill="none" stroke="#000000" d="M529.3231,-122.0225C529.3231,-139.3734 529.3231,-163 529.3231,-163 529.3231,-163 467.1052,-163 467.1052,-163"/>
<polygon fill="#000000" stroke="#000000" points="467.1053,-159.5001 457.1052,-163 467.1052,-166.5001 467.1053,-159.5001"/>
</g>
<!-- CalendarComponent  -->
<g id="node6" class="node">
<title>CalendarComponent </title>
<polygon fill="#fb8072" stroke="#000000" points="554.8645,-252 419.1355,-252 419.1355,-216 554.8645,-216 554.8645,-252"/>
<text text-anchor="middle" x="487" y="-229.8" font-family="Times,serif" font-size="14.00" fill="#000000">CalendarComponent </text>
</g>
<!-- CalendarModule&#45;&gt;CalendarComponent  -->
<g id="edge5" class="edge">
<title>CalendarModule&#45;&gt;CalendarComponent </title>
<path fill="none" stroke="#000000" stroke-dasharray="5,2" d="M438.1794,-187.1061C438.1794,-187.1061 438.1794,-205.991 438.1794,-205.991"/>
<polygon fill="#000000" stroke="#000000" points="434.6794,-205.9909 438.1794,-215.991 441.6794,-205.991 434.6794,-205.9909"/>
</g>
<!-- CalendarDetailComponent  -->
<g id="node7" class="node">
<title>CalendarDetailComponent </title>
<polygon fill="#fb8072" stroke="#000000" points="401.5721,-252 232.4279,-252 232.4279,-216 401.5721,-216 401.5721,-252"/>
<text text-anchor="middle" x="317" y="-229.8" font-family="Times,serif" font-size="14.00" fill="#000000">CalendarDetailComponent </text>
</g>
<!-- CalendarModule&#45;&gt;CalendarDetailComponent  -->
<g id="edge6" class="edge">
<title>CalendarModule&#45;&gt;CalendarDetailComponent </title>
<path fill="none" stroke="#000000" stroke-dasharray="5,2" d="M374.3726,-187.1061C374.3726,-187.1061 374.3726,-205.991 374.3726,-205.991"/>
<polygon fill="#000000" stroke="#000000" points="370.8726,-205.9909 374.3726,-215.991 377.8726,-205.991 370.8726,-205.9909"/>
</g>
<!-- CalendarRoutingModule -->
<g id="node4" class="node">
<title>CalendarRoutingModule</title>
<polygon fill="#8dd3c7" stroke="#000000" points="479.6993,-122 476.6993,-126 455.6993,-126 452.6993,-122 324.3007,-122 324.3007,-86 479.6993,-86 479.6993,-122"/>
<text text-anchor="middle" x="402" y="-99.8" font-family="Times,serif" font-size="14.00" fill="#000000">CalendarRoutingModule</text>
</g>
<!-- CalendarRoutingModule&#45;&gt;CalendarModule -->
<g id="edge3" class="edge">
<title>CalendarRoutingModule&#45;&gt;CalendarModule</title>
<path fill="none" stroke="#000000" d="M402,-122.1061C402,-122.1061 402,-140.991 402,-140.991"/>
<polygon fill="#000000" stroke="#000000" points="398.5001,-140.9909 402,-150.991 405.5001,-140.991 398.5001,-140.9909"/>
</g>
<!-- angularCalendar -->
<g id="node5" class="node">
<title>angularCalendar</title>
<polygon fill="#8dd3c7" stroke="#000000" points="306.0131,-122 303.0131,-126 282.0131,-126 279.0131,-122 197.9869,-122 197.9869,-86 306.0131,-86 306.0131,-122"/>
<text text-anchor="middle" x="252" y="-99.8" font-family="Times,serif" font-size="14.00" fill="#000000">angularCalendar</text>
</g>
<!-- angularCalendar&#45;&gt;CalendarModule -->
<g id="edge4" class="edge">
<title>angularCalendar&#45;&gt;CalendarModule</title>
<path fill="none" stroke="#000000" d="M269.2351,-122.0225C269.2351,-139.3734 269.2351,-163 269.2351,-163 269.2351,-163 336.8491,-163 336.8491,-163"/>
<polygon fill="#000000" stroke="#000000" points="336.8492,-166.5001 346.8491,-163 336.8491,-159.5001 336.8492,-166.5001"/>
</g>
<!-- CalendarService -->
<g id="node8" class="node">
<title>CalendarService</title>
<ellipse fill="#fdb462" stroke="#000000" cx="99" cy="-104" rx="74.6956" ry="18"/>
<text text-anchor="middle" x="99" y="-99.8" font-family="Times,serif" font-size="14.00" fill="#000000">CalendarService</text>
</g>
<!-- CalendarService&#45;&gt;CalendarModule -->
<g id="edge7" class="edge">
<title>CalendarService&#45;&gt;CalendarModule</title>
<path fill="none" stroke="#000000" d="M99,-122.2843C99,-143.3211 99,-175 99,-175 99,-175 336.7775,-175 336.7775,-175"/>
<polygon fill="#000000" stroke="#000000" points="336.7775,-178.5001 346.7775,-175 336.7774,-171.5001 336.7775,-178.5001"/>
</g>
</g>
</svg>
