<?xml version="1.0" encoding="iso-8859-1"?>
<!-- Generator: Adobe Illustrator 18.0.0, SVG Export Plug-In . SVG Version: 6.00 Build 0)  -->
<!DOCTYPE svg PUBLIC "-//W3C//DTD SVG 1.1//EN" "http://www.w3.org/Graphics/SVG/1.1/DTD/svg11.dtd">
<svg version="1.1" id="Capa_1" xmlns="http://www.w3.org/2000/svg" xmlns:xlink="http://www.w3.org/1999/xlink" x="0px" y="0px"
	 viewBox="0 0 401.905 401.905" style="enable-background:new 0 0 401.905 401.905;" xml:space="preserve">
<g>
	<g>
		<path style="fill:#CE593F;" d="M195.384,189.89c0.029-0.271,0.081-0.333,0.081-0.609h-0.02
			C195.437,189.281,195.399,189.752,195.384,189.89z"/>
		<polygon style="fill:#CE593F;" points="143.407,261.416 142.315,254.523 142.297,254.523 		"/>
		<path style="fill:#CE593F;" d="M217.135,247.957c-0.303,1.415-0.991,2.707-1.949,3.741
			C216.164,250.681,216.849,249.396,217.135,247.957z"/>
		<path style="fill:#CE593F;" d="M214.587,252.247c0.169-0.141,0.341-0.276,0.496-0.431
			C214.931,251.974,214.751,252.102,214.587,252.247z"/>
	</g>
	<polygon style="fill:#CE593F;" points="124.225,140.523 124.163,140.523 128.098,164.956 	"/>
	<g>
		<path style="fill:#CE593F;" d="M286.393,75.681c0.151,0.303,0.268,0.625,0.384,0.947C286.66,76.306,286.545,75.985,286.393,75.681
			z"/>
		<path style="fill:#CE593F;" d="M285.119,73.817c-0.208-0.237-0.407-0.479-0.639-0.693
			C284.711,73.337,284.912,73.58,285.119,73.817z"/>
		<path style="fill:#CE593F;" d="M285.549,74.312c0.199,0.265,0.365,0.553,0.534,0.84C285.914,74.865,285.749,74.577,285.549,74.312
			z"/>
		<path style="fill:#CE593F;" d="M286.982,77.206c0.093,0.328,0.15,0.67,0.206,1.012C287.132,77.875,287.076,77.535,286.982,77.206z
			"/>
		<path style="fill:#CE593F;" d="M283.212,72.143c0.244,0.155,0.462,0.344,0.689,0.521
			C283.673,72.487,283.456,72.298,283.212,72.143z"/>
		<path style="fill:#CE593F;" d="M280.186,70.929c0.204,0.04,0.392,0.118,0.591,0.171C280.578,71.047,280.39,70.969,280.186,70.929z
			"/>
		<path style="fill:#CE593F;" d="M281.771,71.401c0.238,0.096,0.455,0.229,0.683,0.344C282.226,71.629,282.01,71.496,281.771,71.401
			z"/>
	</g>
	<g>
		<path style="fill:#CE593F;" d="M194.039,311.184c3.526,0,6.474-1.999,7.285-5.993C200.525,308.54,197.578,311.184,194.039,311.184
			z"/>
		<path style="fill:#CE593F;" d="M227.943,95.523h56.726l2.661-17.144c-0.009-0.172-0.056-0.856-0.075-0.856H138.461
			c-4.736,0-8.606,4.288-8.842,8.967l5.941,38.033h24.597c4.152,0,7.703,3.376,7.703,7.528v0.472h7.331
			c4.152,0,7.518,3.348,7.518,7.5s-3.365,7.5-7.518,7.5h-35.994l5.387,34h43.364c4.152,0,7.517,4,7.517,8h7.517
			c4.152,0,7.517,3.848,7.517,8c0,4.152-3.365,8-7.517,8h-54.718l5.363,33h56.171c4.152,0,8.063,3.608,8.063,7.76v-0.76h6.971
			c4.152,0,7.517,4.348,7.517,8.5s-3.365,8.5-7.517,8.5h-67.5l5.34,33h31.368c4.152,0,6.821,3.978,6.821,8.13v-0.13h8.213
			c4.152,0,7.517,3.848,7.517,8s-3.365,8-7.517,8h-42.675l3.204,20h76.491l8.992-57h-0.006l-1.247,8h-10.854
			c-4.151,0-7.517-3.428-7.517-7.581c0-0.12,0.011-0.419,0.019-0.419h-7.536c-4.151,0-7.517-3.348-7.517-7.5s3.366-7.5,7.517-7.5
			h29.525l6.683-42h-0.029l-1.225,8h-34.132c-4.151,0-7.517-3.499-7.517-7.651c0-0.073,0.006-0.349,0.011-0.349h-7.528
			c-4.151,0-7.517-3.348-7.517-7.5s3.366-7.5,7.517-7.5h52.804l6.684-42h-0.051l-1.204,7H255.86c-4.151,0-7.517-3.07-7.517-7.222
			c0-0.025,0.003,0.222,0.004,0.222h-7.521c-4.151,0-7.517-3.848-7.517-8s3.366-8,7.517-8h34.775l6.684-41.276l-0.074,0.246
			l-1.18,8.03h-38.054c-4.151,0-7.517-3.436-7.517-7.588c0-0.134-0.131-1.938-0.123-1.938l28.895-0.237l-35.704,0.58
			c-4.151,0-8.103-2.568-8.103-6.72S223.792,95.523,227.943,95.523z"/>
		<path style="fill:#CE593F;" d="M201.324,305.191c0.139-0.58,0.232-1.174,0.232-1.788h-0.02
			C201.511,304.039,201.437,304.633,201.324,305.191z"/>
	</g>
	<path style="fill:#CE593F;" d="M217.189,247.321c0.068-0.412,0.126-0.553,0.126-0.98h-0.02
		C217.282,246.342,217.224,247.086,217.189,247.321z"/>
	<path style="fill:#CE593F;" d="M167.633,132.496c0.008-0.138,0.041-0.137,0.041-0.276h-0.02
		C167.652,132.219,167.637,132.447,167.633,132.496z"/>
	<g>
		<polygon style="fill:#CE593F;" points="135.748,213.159 133.27,197.523 133.23,197.523 		"/>
		<path style="fill:#CE593F;" d="M195.242,191.037c-0.031,0.129-0.079,0.252-0.115,0.379
			C195.164,191.289,195.211,191.167,195.242,191.037z"/>
	</g>
	<path style="fill:#3F2D20;" d="M278.488,55.729h-70.014V7.517c0-4.152-3.365-7.517-7.517-7.517c-4.151,0-7.517,3.365-7.517,7.517
		v48.211h-70.013c-13.178,0-23.899,10.342-23.899,23.52c0,0.335,0.082,1.492,0.093,1.556l42.358,267.235
		c0.579,3.651,3.727,6.341,7.424,6.341h44.037v40.007c0,4.152,3.366,7.517,7.517,7.517c4.152,0,7.517-3.365,7.517-7.517v-40.007
		h44.038c3.698,0,6.846-2.69,7.425-6.341l42.358-267.235c0.01-0.063,0.084-1.517,0.082-1.556
		C302.173,66.245,291.538,55.729,278.488,55.729z M284.669,95.971h-56.726c-4.151,0-7.517,3.365-7.517,7.517
		s3.366,7.517,7.517,7.517h54.342l-6.684,42.17h-34.775c-4.151,0-7.517,3.365-7.517,7.517s3.366,7.517,7.517,7.517h32.393
		l-6.684,42.168h-52.804c-4.151,0-7.517,3.365-7.517,7.517s3.366,7.517,7.517,7.517h50.42l-6.683,42.168h-29.525
		c-4.151,0-7.517,3.365-7.517,7.517c0,4.152,3.366,7.517,7.517,7.517h27.142l-8.992,56.733h-90.27l-4.459-28.13h42.675
		c4.152,0,7.517-3.365,7.517-7.517s-3.365-7.517-7.517-7.517h-45.058l-6.684-42.17h67.5c4.152,0,7.517-3.365,7.517-7.517
		c0-4.152-3.365-7.517-7.517-7.517h-69.884l-6.684-42.168h54.718c4.152,0,7.517-3.365,7.517-7.517s-3.365-7.517-7.517-7.517h-57.101
		l-6.684-42.168h35.994c4.152,0,7.517-3.365,7.517-7.517c0-4.152-3.365-7.517-7.517-7.517H121.78l-7.195-45.395
		c0.237-4.678,4.106-8.415,8.842-8.415h155.061c4.736,0,8.606,3.737,8.842,8.415L284.669,95.971z"/>
</g>
<g>
</g>
<g>
</g>
<g>
</g>
<g>
</g>
<g>
</g>
<g>
</g>
<g>
</g>
<g>
</g>
<g>
</g>
<g>
</g>
<g>
</g>
<g>
</g>
<g>
</g>
<g>
</g>
<g>
</g>
</svg>
