<?xml version="1.0" encoding="UTF-8" standalone="no"?>
<!DOCTYPE svg PUBLIC "-//W3C//DTD SVG 1.1//EN"
 "http://www.w3.org/Graphics/SVG/1.1/DTD/svg11.dtd">
<!-- Generated by graphviz version 2.40.1 (20161225.0304)
 -->
<!-- Title: dependencies Pages: 1 -->
<svg width="3294pt" height="436pt"
 viewBox="0.00 0.00 3294.00 436.00" xmlns="http://www.w3.org/2000/svg" xmlns:xlink="http://www.w3.org/1999/xlink">
<g id="graph0" class="graph" transform="scale(1 1) rotate(0) translate(4 432)">
<title>dependencies</title>
<polygon fill="#ffffff" stroke="transparent" points="-4,4 -4,-432 3290,-432 3290,4 -4,4"/>
<text text-anchor="start" x="1622.0091" y="-42.4" font-family="sans-serif" font-weight="bold" font-size="14.00" fill="#000000">Legend</text>
<polygon fill="#ffffb3" stroke="transparent" points="1409,-10 1409,-30 1429,-30 1429,-10 1409,-10"/>
<text text-anchor="start" x="1432.629" y="-15.4" font-family="sans-serif" font-size="14.00" fill="#000000"> &#160;Declarations</text>
<polygon fill="#8dd3c7" stroke="transparent" points="1522,-10 1522,-30 1542,-30 1542,-10 1522,-10"/>
<text text-anchor="start" x="1545.7251" y="-15.4" font-family="sans-serif" font-size="14.00" fill="#000000"> &#160;Module</text>
<polygon fill="#80b1d3" stroke="transparent" points="1608,-10 1608,-30 1628,-30 1628,-10 1608,-10"/>
<text text-anchor="start" x="1631.7812" y="-15.4" font-family="sans-serif" font-size="14.00" fill="#000000"> &#160;Bootstrap</text>
<polygon fill="#fdb462" stroke="transparent" points="1705,-10 1705,-30 1725,-30 1725,-10 1705,-10"/>
<text text-anchor="start" x="1728.6732" y="-15.4" font-family="sans-serif" font-size="14.00" fill="#000000"> &#160;Providers</text>
<polygon fill="#fb8072" stroke="transparent" points="1801,-10 1801,-30 1821,-30 1821,-10 1801,-10"/>
<text text-anchor="start" x="1824.7258" y="-15.4" font-family="sans-serif" font-size="14.00" fill="#000000"> &#160;Exports</text>
<g id="clust1" class="cluster">
<title>cluster_AppModule</title>
<polygon fill="none" stroke="#000000" stroke-dasharray="1,5" points="594,-222 594,-420 1014,-420 1014,-222 594,-222"/>
</g>
<g id="clust2" class="cluster">
<title>cluster_AppModule_declarations</title>
<polygon fill="none" stroke="#000000" points="884,-230 884,-282 1006,-282 1006,-230 884,-230"/>
</g>
<g id="clust4" class="cluster">
<title>cluster_AppModule_imports</title>
<polygon fill="none" stroke="#000000" points="774,-230 774,-282 876,-282 876,-230 774,-230"/>
</g>
<g id="clust6" class="cluster">
<title>cluster_AppModule_bootstrap</title>
<polygon fill="none" stroke="#000000" points="763,-360 763,-412 887,-412 887,-360 763,-360"/>
</g>
<g id="clust7" class="cluster">
<title>cluster_AppModule_providers</title>
<polygon fill="none" stroke="#000000" points="602,-230 602,-282 766,-282 766,-230 602,-230"/>
</g>
<g id="clust8" class="cluster">
<title>cluster_CalendarModule</title>
<polygon fill="none" stroke="#000000" stroke-dasharray="1,5" points="1484,-70 1484,-290 2312,-290 2312,-70 1484,-70"/>
</g>
<g id="clust9" class="cluster">
<title>cluster_CalendarModule_declarations</title>
<polygon fill="none" stroke="#000000" points="1972,-78 1972,-130 2304,-130 2304,-78 1972,-78"/>
</g>
<g id="clust12" class="cluster">
<title>cluster_CalendarModule_imports</title>
<polygon fill="none" stroke="#000000" points="1666,-78 1666,-130 1964,-130 1964,-78 1666,-78"/>
</g>
<g id="clust13" class="cluster">
<title>cluster_CalendarModule_exports</title>
<polygon fill="none" stroke="#000000" points="1625,-230 1625,-282 1964,-282 1964,-230 1625,-230"/>
</g>
<g id="clust15" class="cluster">
<title>cluster_CalendarModule_providers</title>
<polygon fill="none" stroke="#000000" points="1492,-78 1492,-130 1658,-130 1658,-78 1492,-78"/>
</g>
<g id="clust22" class="cluster">
<title>cluster_CoreModule</title>
<polygon fill="none" stroke="#000000" stroke-dasharray="1,5" points="8,-146 8,-214 1476,-214 1476,-146 8,-146"/>
</g>
<g id="clust23" class="cluster">
<title>cluster_CoreModule_declarations</title>
<polygon fill="none" stroke="#000000" points="753,-154 753,-206 1468,-206 1468,-154 753,-154"/>
</g>
<g id="clust29" class="cluster">
<title>cluster_CoreModule_imports</title>
<polygon fill="none" stroke="#000000" points="319,-154 319,-206 745,-206 745,-154 319,-154"/>
</g>
<g id="clust30" class="cluster">
<title>cluster_CoreModule_exports</title>
<polygon fill="none" stroke="#000000" points="16,-154 16,-206 311,-206 311,-154 16,-154"/>
</g>
<g id="clust39" class="cluster">
<title>cluster_FournisseurModule</title>
<polygon fill="none" stroke="#000000" stroke-dasharray="1,5" points="2320,-70 2320,-290 3278,-290 3278,-70 2320,-70"/>
</g>
<g id="clust40" class="cluster">
<title>cluster_FournisseurModule_declarations</title>
<polygon fill="none" stroke="#000000" points="2652,-78 2652,-130 3270,-130 3270,-78 2652,-78"/>
</g>
<g id="clust44" class="cluster">
<title>cluster_FournisseurModule_imports</title>
<polygon fill="none" stroke="#000000" points="2524,-78 2524,-130 2644,-130 2644,-78 2524,-78"/>
</g>
<g id="clust45" class="cluster">
<title>cluster_FournisseurModule_exports</title>
<polygon fill="none" stroke="#000000" points="2451,-230 2451,-282 3079,-282 3079,-230 2451,-230"/>
</g>
<g id="clust47" class="cluster">
<title>cluster_FournisseurModule_providers</title>
<polygon fill="none" stroke="#000000" points="2328,-78 2328,-130 2516,-130 2516,-78 2328,-78"/>
</g>
<g id="clust48" class="cluster">
<title>cluster_RestaurantmenuModule</title>
<polygon fill="none" stroke="#000000" stroke-dasharray="1,5" points="27,-70 27,-138 473,-138 473,-70 27,-70"/>
</g>
<g id="clust49" class="cluster">
<title>cluster_RestaurantmenuModule_declarations</title>
<polygon fill="none" stroke="#000000" points="35,-78 35,-130 465,-130 465,-78 35,-78"/>
</g>
<g id="clust63" class="cluster">
<title>cluster_StockModule</title>
<polygon fill="none" stroke="#000000" stroke-dasharray="1,5" points="481,-70 481,-138 958,-138 958,-70 481,-70"/>
</g>
<g id="clust64" class="cluster">
<title>cluster_StockModule_declarations</title>
<polygon fill="none" stroke="#000000" points="489,-78 489,-130 950,-130 950,-78 489,-78"/>
</g>
<!-- AppComponent -->
<g id="node1" class="node">
<title>AppComponent</title>
<polygon fill="#ffffb3" stroke="#000000" points="997.9399,-274 892.0601,-274 892.0601,-238 997.9399,-238 997.9399,-274"/>
<text text-anchor="middle" x="945" y="-251.8" font-family="Times,serif" font-size="14.00" fill="#000000">AppComponent</text>
</g>
<!-- AppModule -->
<g id="node2" class="node">
<title>AppModule</title>
<polygon fill="#8dd3c7" stroke="#000000" points="866.6571,-339 863.6571,-343 842.6571,-343 839.6571,-339 783.3429,-339 783.3429,-303 866.6571,-303 866.6571,-339"/>
<text text-anchor="middle" x="825" y="-316.8" font-family="Times,serif" font-size="14.00" fill="#000000">AppModule</text>
</g>
<!-- AppComponent&#45;&gt;AppModule -->
<g id="edge1" class="edge">
<title>AppComponent&#45;&gt;AppModule</title>
<path fill="none" stroke="#000000" d="M945,-274.1061C945,-293.3391 945,-321 945,-321 945,-321 876.9702,-321 876.9702,-321"/>
<polygon fill="#000000" stroke="#000000" points="876.9702,-317.5001 866.9702,-321 876.9701,-324.5001 876.9702,-317.5001"/>
</g>
<!-- AppComponent  -->
<g id="node4" class="node">
<title>AppComponent </title>
<polygon fill="#80b1d3" stroke="#000000" points="879.439,-404 770.561,-404 770.561,-368 879.439,-368 879.439,-404"/>
<text text-anchor="middle" x="825" y="-381.8" font-family="Times,serif" font-size="14.00" fill="#000000">AppComponent </text>
</g>
<!-- AppModule&#45;&gt;AppComponent  -->
<g id="edge3" class="edge">
<title>AppModule&#45;&gt;AppComponent </title>
<path fill="none" stroke="#000000" stroke-dasharray="1,5" d="M825,-339.1061C825,-339.1061 825,-357.991 825,-357.991"/>
<polygon fill="#000000" stroke="#000000" points="821.5001,-357.9909 825,-367.991 828.5001,-357.991 821.5001,-357.9909"/>
</g>
<!-- CoreModule -->
<g id="node3" class="node">
<title>CoreModule</title>
<polygon fill="#8dd3c7" stroke="#000000" points="868.2619,-274 865.2619,-278 844.2619,-278 841.2619,-274 781.7381,-274 781.7381,-238 868.2619,-238 868.2619,-274"/>
<text text-anchor="middle" x="825" y="-251.8" font-family="Times,serif" font-size="14.00" fill="#000000">CoreModule</text>
</g>
<!-- CoreModule&#45;&gt;AppModule -->
<g id="edge2" class="edge">
<title>CoreModule&#45;&gt;AppModule</title>
<path fill="none" stroke="#000000" d="M825,-274.1061C825,-274.1061 825,-292.991 825,-292.991"/>
<polygon fill="#000000" stroke="#000000" points="821.5001,-292.9909 825,-302.991 828.5001,-292.991 821.5001,-292.9909"/>
</g>
<!-- CoreRoutingModule  -->
<g id="node22" class="node">
<title>CoreRoutingModule </title>
<polygon fill="#fb8072" stroke="#000000" points="302.8799,-198 167.1201,-198 167.1201,-162 302.8799,-162 302.8799,-198"/>
<text text-anchor="middle" x="235" y="-175.8" font-family="Times,serif" font-size="14.00" fill="#000000">CoreRoutingModule </text>
</g>
<!-- CoreModule&#45;&gt;CoreRoutingModule  -->
<g id="edge21" class="edge">
<title>CoreModule&#45;&gt;CoreRoutingModule </title>
<path fill="none" stroke="#000000" stroke-dasharray="5,2" d="M796.0795,-237.5146C796.0795,-225.8601 796.0795,-213 796.0795,-213 796.0795,-213 235,-213 235,-213 235,-213 235,-208.0449 235,-208.0449"/>
<polygon fill="#000000" stroke="#000000" points="238.5001,-208.0448 235,-198.0449 231.5001,-208.0449 238.5001,-208.0448"/>
</g>
<!-- HeaderComponent  -->
<g id="node23" class="node">
<title>HeaderComponent </title>
<polygon fill="#fb8072" stroke="#000000" points="149.7436,-198 24.2564,-198 24.2564,-162 149.7436,-162 149.7436,-198"/>
<text text-anchor="middle" x="87" y="-175.8" font-family="Times,serif" font-size="14.00" fill="#000000">HeaderComponent </text>
</g>
<!-- CoreModule&#45;&gt;HeaderComponent  -->
<g id="edge22" class="edge">
<title>CoreModule&#45;&gt;HeaderComponent </title>
<path fill="none" stroke="#000000" stroke-dasharray="5,2" d="M788.8493,-237.8701C788.8493,-227.6855 788.8493,-217 788.8493,-217 788.8493,-217 87,-217 87,-217 87,-217 87,-208.0664 87,-208.0664"/>
<polygon fill="#000000" stroke="#000000" points="90.5001,-208.0664 87,-198.0664 83.5001,-208.0665 90.5001,-208.0664"/>
</g>
<!-- ProductsService -->
<g id="node5" class="node">
<title>ProductsService</title>
<ellipse fill="#fdb462" stroke="#000000" cx="684" cy="-256" rx="73.5734" ry="18"/>
<text text-anchor="middle" x="684" y="-251.8" font-family="Times,serif" font-size="14.00" fill="#000000">ProductsService</text>
</g>
<!-- ProductsService&#45;&gt;AppModule -->
<g id="edge4" class="edge">
<title>ProductsService&#45;&gt;AppModule</title>
<path fill="none" stroke="#000000" d="M684,-274.1061C684,-293.3391 684,-321 684,-321 684,-321 773.0771,-321 773.0771,-321"/>
<polygon fill="#000000" stroke="#000000" points="773.0771,-324.5001 783.0771,-321 773.0771,-317.5001 773.0771,-324.5001"/>
</g>
<!-- CalendarComponent -->
<g id="node6" class="node">
<title>CalendarComponent</title>
<polygon fill="#ffffb3" stroke="#000000" points="2295.8641,-122 2164.1359,-122 2164.1359,-86 2295.8641,-86 2295.8641,-122"/>
<text text-anchor="middle" x="2230" y="-99.8" font-family="Times,serif" font-size="14.00" fill="#000000">CalendarComponent</text>
</g>
<!-- CalendarModule -->
<g id="node8" class="node">
<title>CalendarModule</title>
<polygon fill="#8dd3c7" stroke="#000000" points="1858.0814,-198 1855.0814,-202 1834.0814,-202 1831.0814,-198 1747.9186,-198 1747.9186,-162 1858.0814,-162 1858.0814,-198"/>
<text text-anchor="middle" x="1803" y="-175.8" font-family="Times,serif" font-size="14.00" fill="#000000">CalendarModule</text>
</g>
<!-- CalendarComponent&#45;&gt;CalendarModule -->
<g id="edge5" class="edge">
<title>CalendarComponent&#45;&gt;CalendarModule</title>
<path fill="none" stroke="#000000" d="M2230,-122.0267C2230,-142.7672 2230,-174 2230,-174 2230,-174 1868.385,-174 1868.385,-174"/>
<polygon fill="#000000" stroke="#000000" points="1868.3851,-170.5001 1858.385,-174 1868.385,-177.5001 1868.3851,-170.5001"/>
</g>
<!-- CalendarDetailComponent -->
<g id="node7" class="node">
<title>CalendarDetailComponent</title>
<polygon fill="#ffffb3" stroke="#000000" points="2146.0716,-122 1979.9284,-122 1979.9284,-86 2146.0716,-86 2146.0716,-122"/>
<text text-anchor="middle" x="2063" y="-99.8" font-family="Times,serif" font-size="14.00" fill="#000000">CalendarDetailComponent</text>
</g>
<!-- CalendarDetailComponent&#45;&gt;CalendarModule -->
<g id="edge6" class="edge">
<title>CalendarDetailComponent&#45;&gt;CalendarModule</title>
<path fill="none" stroke="#000000" d="M2063,-122.1686C2063,-141.0898 2063,-168 2063,-168 2063,-168 1868.1393,-168 1868.1393,-168"/>
<polygon fill="#000000" stroke="#000000" points="1868.1393,-164.5001 1858.1393,-168 1868.1393,-171.5001 1868.1393,-164.5001"/>
</g>
<!-- CalendarModule&#45;&gt;CoreModule -->
<g id="edge17" class="edge">
<title>CalendarModule&#45;&gt;CoreModule</title>
<path fill="none" stroke="#000000" d="M1766.2348,-198.0091C1766.2348,-214.0494 1766.2348,-235 1766.2348,-235 1766.2348,-235 861.1507,-235 861.1507,-235 861.1507,-235 861.1507,-235.292 861.1507,-235.292"/>
<polygon fill="#000000" stroke="#000000" points="857.651,-227.9198 861.1507,-237.92 864.651,-227.9201 857.651,-227.9198"/>
</g>
<!-- CalendarComponent  -->
<g id="node11" class="node">
<title>CalendarComponent </title>
<polygon fill="#fb8072" stroke="#000000" points="1955.8645,-274 1820.1355,-274 1820.1355,-238 1955.8645,-238 1955.8645,-274"/>
<text text-anchor="middle" x="1888" y="-251.8" font-family="Times,serif" font-size="14.00" fill="#000000">CalendarComponent </text>
</g>
<!-- CalendarModule&#45;&gt;CalendarComponent  -->
<g id="edge9" class="edge">
<title>CalendarModule&#45;&gt;CalendarComponent </title>
<path fill="none" stroke="#000000" stroke-dasharray="5,2" d="M1839.1794,-198.0109C1839.1794,-198.0109 1839.1794,-227.855 1839.1794,-227.855"/>
<polygon fill="#000000" stroke="#000000" points="1835.6794,-227.8549 1839.1794,-237.855 1842.6794,-227.855 1835.6794,-227.8549"/>
</g>
<!-- CalendarDetailComponent  -->
<g id="node12" class="node">
<title>CalendarDetailComponent </title>
<polygon fill="#fb8072" stroke="#000000" points="1802.5721,-274 1633.4279,-274 1633.4279,-238 1802.5721,-238 1802.5721,-274"/>
<text text-anchor="middle" x="1718" y="-251.8" font-family="Times,serif" font-size="14.00" fill="#000000">CalendarDetailComponent </text>
</g>
<!-- CalendarModule&#45;&gt;CalendarDetailComponent  -->
<g id="edge10" class="edge">
<title>CalendarModule&#45;&gt;CalendarDetailComponent </title>
<path fill="none" stroke="#000000" stroke-dasharray="5,2" d="M1784.5103,-198.0109C1784.5103,-198.0109 1784.5103,-227.855 1784.5103,-227.855"/>
<polygon fill="#000000" stroke="#000000" points="1781.0104,-227.8549 1784.5103,-237.855 1788.0104,-227.855 1781.0104,-227.8549"/>
</g>
<!-- CalendarRoutingModule -->
<g id="node9" class="node">
<title>CalendarRoutingModule</title>
<polygon fill="#8dd3c7" stroke="#000000" points="1955.6993,-122 1952.6993,-126 1931.6993,-126 1928.6993,-122 1800.3007,-122 1800.3007,-86 1955.6993,-86 1955.6993,-122"/>
<text text-anchor="middle" x="1878" y="-99.8" font-family="Times,serif" font-size="14.00" fill="#000000">CalendarRoutingModule</text>
</g>
<!-- CalendarRoutingModule&#45;&gt;CalendarModule -->
<g id="edge7" class="edge">
<title>CalendarRoutingModule&#45;&gt;CalendarModule</title>
<path fill="none" stroke="#000000" d="M1829.2206,-122.0109C1829.2206,-122.0109 1829.2206,-151.855 1829.2206,-151.855"/>
<polygon fill="#000000" stroke="#000000" points="1825.7206,-151.8549 1829.2206,-161.855 1832.7206,-151.855 1825.7206,-151.8549"/>
</g>
<!-- angularCalendar -->
<g id="node10" class="node">
<title>angularCalendar</title>
<polygon fill="#8dd3c7" stroke="#000000" points="1782.0131,-122 1779.0131,-126 1758.0131,-126 1755.0131,-122 1673.9869,-122 1673.9869,-86 1782.0131,-86 1782.0131,-122"/>
<text text-anchor="middle" x="1728" y="-99.8" font-family="Times,serif" font-size="14.00" fill="#000000">angularCalendar</text>
</g>
<!-- angularCalendar&#45;&gt;CalendarModule -->
<g id="edge8" class="edge">
<title>angularCalendar&#45;&gt;CalendarModule</title>
<path fill="none" stroke="#000000" d="M1765.1077,-122.0109C1765.1077,-122.0109 1765.1077,-151.855 1765.1077,-151.855"/>
<polygon fill="#000000" stroke="#000000" points="1761.6077,-151.8549 1765.1077,-161.855 1768.6077,-151.855 1761.6077,-151.8549"/>
</g>
<!-- CalendarService -->
<g id="node13" class="node">
<title>CalendarService</title>
<ellipse fill="#fdb462" stroke="#000000" cx="1575" cy="-104" rx="74.6956" ry="18"/>
<text text-anchor="middle" x="1575" y="-99.8" font-family="Times,serif" font-size="14.00" fill="#000000">CalendarService</text>
</g>
<!-- CalendarService&#45;&gt;CalendarModule -->
<g id="edge11" class="edge">
<title>CalendarService&#45;&gt;CalendarModule</title>
<path fill="none" stroke="#000000" d="M1641.5309,-112.4237C1641.5309,-132.2112 1641.5309,-180 1641.5309,-180 1641.5309,-180 1737.8831,-180 1737.8831,-180"/>
<polygon fill="#000000" stroke="#000000" points="1737.8832,-183.5001 1747.8831,-180 1737.8831,-176.5001 1737.8832,-183.5001"/>
</g>
<!-- HeaderComponent -->
<g id="node14" class="node">
<title>HeaderComponent</title>
<polygon fill="#ffffb3" stroke="#000000" points="1459.7437,-198 1338.2563,-198 1338.2563,-162 1459.7437,-162 1459.7437,-198"/>
<text text-anchor="middle" x="1399" y="-175.8" font-family="Times,serif" font-size="14.00" fill="#000000">HeaderComponent</text>
</g>
<!-- HeaderComponent&#45;&gt;CoreModule -->
<g id="edge12" class="edge">
<title>HeaderComponent&#45;&gt;CoreModule</title>
<path fill="none" stroke="#000000" d="M1399,-198.1243C1399,-212.7832 1399,-231 1399,-231 1399,-231 853.9205,-231 853.9205,-231 853.9205,-231 853.9205,-231.6831 853.9205,-231.6831"/>
<polygon fill="#000000" stroke="#000000" points="850.4207,-227.8313 853.9205,-237.8314 857.4207,-227.8314 850.4207,-227.8313"/>
</g>
<!-- ListusersComponent -->
<g id="node15" class="node">
<title>ListusersComponent</title>
<polygon fill="#ffffb3" stroke="#000000" points="1319.8753,-198 1188.1247,-198 1188.1247,-162 1319.8753,-162 1319.8753,-198"/>
<text text-anchor="middle" x="1254" y="-175.8" font-family="Times,serif" font-size="14.00" fill="#000000">ListusersComponent</text>
</g>
<!-- ListusersComponent&#45;&gt;CoreModule -->
<g id="edge13" class="edge">
<title>ListusersComponent&#45;&gt;CoreModule</title>
<path fill="none" stroke="#000000" d="M1254,-198.1467C1254,-211.7395 1254,-228 1254,-228 1254,-228 846.6904,-228 846.6904,-228 846.6904,-228 846.6904,-228.9793 846.6904,-228.9793"/>
<polygon fill="#000000" stroke="#000000" points="843.1905,-227.793 846.6904,-237.793 850.1905,-227.7931 843.1905,-227.793"/>
</g>
<!-- LoginComponent -->
<g id="node16" class="node">
<title>LoginComponent</title>
<polygon fill="#ffffb3" stroke="#000000" points="1170.2758,-198 1055.7242,-198 1055.7242,-162 1170.2758,-162 1170.2758,-198"/>
<text text-anchor="middle" x="1113" y="-175.8" font-family="Times,serif" font-size="14.00" fill="#000000">LoginComponent</text>
</g>
<!-- LoginComponent&#45;&gt;CoreModule -->
<g id="edge14" class="edge">
<title>LoginComponent&#45;&gt;CoreModule</title>
<path fill="none" stroke="#000000" d="M1113,-198.1505C1113,-210.2708 1113,-224 1113,-224 1113,-224 839.4603,-224 839.4603,-224 839.4603,-224 839.4603,-227.7566 839.4603,-227.7566"/>
<polygon fill="#000000" stroke="#000000" points="835.9604,-227.7566 839.4603,-237.7566 842.9604,-227.7566 835.9604,-227.7566"/>
</g>
<!-- ProductsComponent -->
<g id="node17" class="node">
<title>ProductsComponent</title>
<polygon fill="#ffffb3" stroke="#000000" points="1037.3258,-198 906.6742,-198 906.6742,-162 1037.3258,-162 1037.3258,-198"/>
<text text-anchor="middle" x="972" y="-175.8" font-family="Times,serif" font-size="14.00" fill="#000000">ProductsComponent</text>
</g>
<!-- ProductsComponent&#45;&gt;CoreModule -->
<g id="edge15" class="edge">
<title>ProductsComponent&#45;&gt;CoreModule</title>
<path fill="none" stroke="#000000" d="M952.2784,-198.1274C952.2784,-208.7109 952.2784,-220 952.2784,-220 952.2784,-220 832.2301,-220 832.2301,-220 832.2301,-220 832.2301,-227.5782 832.2301,-227.5782"/>
<polygon fill="#000000" stroke="#000000" points="828.7302,-227.5781 832.2301,-237.5782 835.7302,-227.5782 828.7302,-227.5781"/>
</g>
<!-- RegisterComponent -->
<g id="node18" class="node">
<title>RegisterComponent</title>
<polygon fill="#ffffb3" stroke="#000000" points="888.9846,-198 761.0154,-198 761.0154,-162 888.9846,-162 888.9846,-198"/>
<text text-anchor="middle" x="825" y="-175.8" font-family="Times,serif" font-size="14.00" fill="#000000">RegisterComponent</text>
</g>
<!-- RegisterComponent&#45;&gt;CoreModule -->
<g id="edge16" class="edge">
<title>RegisterComponent&#45;&gt;CoreModule</title>
<path fill="none" stroke="#000000" d="M825,-198.0109C825,-198.0109 825,-227.855 825,-227.855"/>
<polygon fill="#000000" stroke="#000000" points="821.5001,-227.8549 825,-237.855 828.5001,-227.855 821.5001,-227.8549"/>
</g>
<!-- CoreRoutingModule -->
<g id="node19" class="node">
<title>CoreRoutingModule</title>
<polygon fill="#8dd3c7" stroke="#000000" points="736.8795,-198 733.8795,-202 712.8795,-202 709.8795,-198 605.1205,-198 605.1205,-162 736.8795,-162 736.8795,-198"/>
<text text-anchor="middle" x="671" y="-175.8" font-family="Times,serif" font-size="14.00" fill="#000000">CoreRoutingModule</text>
</g>
<!-- CoreRoutingModule&#45;&gt;CoreModule -->
<g id="edge18" class="edge">
<title>CoreRoutingModule&#45;&gt;CoreModule</title>
<path fill="none" stroke="#000000" d="M673.5767,-198.1679C673.5767,-200.4478 673.5767,-202 673.5767,-202 673.5767,-202 817.7699,-202 817.7699,-202 817.7699,-202 817.7699,-227.7181 817.7699,-227.7181"/>
<polygon fill="#000000" stroke="#000000" points="814.27,-227.718 817.7699,-237.7181 821.27,-227.7181 814.27,-227.718"/>
</g>
<!-- RestaurantmenuModule -->
<g id="node20" class="node">
<title>RestaurantmenuModule</title>
<polygon fill="#8dd3c7" stroke="#000000" points="477.0226,-198 474.0226,-202 453.0226,-202 450.0226,-198 326.9774,-198 326.9774,-162 477.0226,-162 477.0226,-198"/>
<text text-anchor="middle" x="402" y="-175.8" font-family="Times,serif" font-size="14.00" fill="#000000">RestaurantmenuModule</text>
</g>
<!-- RestaurantmenuModule&#45;&gt;CoreModule -->
<g id="edge19" class="edge">
<title>RestaurantmenuModule&#45;&gt;CoreModule</title>
<path fill="none" stroke="#000000" d="M402,-198.2015C402,-204.028 402,-209 402,-209 402,-209 803.3096,-209 803.3096,-209 803.3096,-209 803.3096,-227.963 803.3096,-227.963"/>
<polygon fill="#000000" stroke="#000000" points="799.8097,-227.963 803.3096,-237.963 806.8097,-227.963 799.8097,-227.963"/>
</g>
<!-- StockModule -->
<g id="node21" class="node">
<title>StockModule</title>
<polygon fill="#8dd3c7" stroke="#000000" points="586.9387,-198 583.9387,-202 562.9387,-202 559.9387,-198 495.0613,-198 495.0613,-162 586.9387,-162 586.9387,-198"/>
<text text-anchor="middle" x="541" y="-175.8" font-family="Times,serif" font-size="14.00" fill="#000000">StockModule</text>
</g>
<!-- StockModule&#45;&gt;CoreModule -->
<g id="edge20" class="edge">
<title>StockModule&#45;&gt;CoreModule</title>
<path fill="none" stroke="#000000" d="M541,-198.0579C541,-202.4945 541,-206 541,-206 541,-206 810.5397,-206 810.5397,-206 810.5397,-206 810.5397,-227.9489 810.5397,-227.9489"/>
<polygon fill="#000000" stroke="#000000" points="807.0398,-227.9488 810.5397,-237.9489 814.0398,-227.9489 807.0398,-227.9488"/>
</g>
<!-- FournisseurcomponentComponent -->
<g id="node24" class="node">
<title>FournisseurcomponentComponent</title>
<polygon fill="#ffffb3" stroke="#000000" points="3261.6413,-122 3052.3587,-122 3052.3587,-86 3261.6413,-86 3261.6413,-122"/>
<text text-anchor="middle" x="3157" y="-99.8" font-family="Times,serif" font-size="14.00" fill="#000000">FournisseurcomponentComponent</text>
</g>
<!-- FournisseurModule -->
<g id="node27" class="node">
<title>FournisseurModule</title>
<polygon fill="#8dd3c7" stroke="#000000" points="2808.6485,-198 2805.6485,-202 2784.6485,-202 2781.6485,-198 2683.3515,-198 2683.3515,-162 2808.6485,-162 2808.6485,-198"/>
<text text-anchor="middle" x="2746" y="-175.8" font-family="Times,serif" font-size="14.00" fill="#000000">FournisseurModule</text>
</g>
<!-- FournisseurcomponentComponent&#45;&gt;FournisseurModule -->
<g id="edge23" class="edge">
<title>FournisseurcomponentComponent&#45;&gt;FournisseurModule</title>
<path fill="none" stroke="#000000" d="M3061.375,-122.0109C3061.375,-144.4852 3061.375,-180 3061.375,-180 3061.375,-180 2818.685,-180 2818.685,-180"/>
<polygon fill="#000000" stroke="#000000" points="2818.6851,-176.5001 2808.685,-180 2818.685,-183.5001 2818.6851,-176.5001"/>
</g>
<!-- FournisseurdetailsComponent -->
<g id="node25" class="node">
<title>FournisseurdetailsComponent</title>
<polygon fill="#ffffb3" stroke="#000000" points="3033.9762,-122 2850.0238,-122 2850.0238,-86 3033.9762,-86 3033.9762,-122"/>
<text text-anchor="middle" x="2942" y="-99.8" font-family="Times,serif" font-size="14.00" fill="#000000">FournisseurdetailsComponent</text>
</g>
<!-- FournisseurdetailsComponent&#45;&gt;FournisseurModule -->
<g id="edge24" class="edge">
<title>FournisseurdetailsComponent&#45;&gt;FournisseurModule</title>
<path fill="none" stroke="#000000" d="M2853.7207,-122.308C2853.7207,-142.1455 2853.7207,-171 2853.7207,-171 2853.7207,-171 2818.6616,-171 2818.6616,-171"/>
<polygon fill="#000000" stroke="#000000" points="2818.6616,-167.5001 2808.6616,-171 2818.6615,-174.5001 2818.6616,-167.5001"/>
</g>
<!-- RoutfournisseurComponent -->
<g id="node26" class="node">
<title>RoutfournisseurComponent</title>
<polygon fill="#ffffb3" stroke="#000000" points="2831.5364,-122 2660.4636,-122 2660.4636,-86 2831.5364,-86 2831.5364,-122"/>
<text text-anchor="middle" x="2746" y="-99.8" font-family="Times,serif" font-size="14.00" fill="#000000">RoutfournisseurComponent</text>
</g>
<!-- RoutfournisseurComponent&#45;&gt;FournisseurModule -->
<g id="edge25" class="edge">
<title>RoutfournisseurComponent&#45;&gt;FournisseurModule</title>
<path fill="none" stroke="#000000" d="M2746,-122.0109C2746,-122.0109 2746,-151.855 2746,-151.855"/>
<polygon fill="#000000" stroke="#000000" points="2742.5001,-151.8549 2746,-161.855 2749.5001,-151.855 2742.5001,-151.8549"/>
</g>
<!-- FournisseurcomponentComponent  -->
<g id="node29" class="node">
<title>FournisseurcomponentComponent </title>
<polygon fill="#fb8072" stroke="#000000" points="3070.641,-274 2857.359,-274 2857.359,-238 3070.641,-238 3070.641,-274"/>
<text text-anchor="middle" x="2964" y="-251.8" font-family="Times,serif" font-size="14.00" fill="#000000">FournisseurcomponentComponent </text>
</g>
<!-- FournisseurModule&#45;&gt;FournisseurcomponentComponent  -->
<g id="edge27" class="edge">
<title>FournisseurModule&#45;&gt;FournisseurcomponentComponent </title>
<path fill="none" stroke="#000000" stroke-dasharray="5,2" d="M2808.915,-189C2867.4536,-189 2945.7088,-189 2945.7088,-189 2945.7088,-189 2945.7088,-227.692 2945.7088,-227.692"/>
<polygon fill="#000000" stroke="#000000" points="2942.2089,-227.6919 2945.7088,-237.692 2949.2089,-227.692 2942.2089,-227.6919"/>
</g>
<!-- FournisseurdetailsComponent  -->
<g id="node30" class="node">
<title>FournisseurdetailsComponent </title>
<polygon fill="#fb8072" stroke="#000000" points="2839.9768,-274 2652.0232,-274 2652.0232,-238 2839.9768,-238 2839.9768,-274"/>
<text text-anchor="middle" x="2746" y="-251.8" font-family="Times,serif" font-size="14.00" fill="#000000">FournisseurdetailsComponent </text>
</g>
<!-- FournisseurModule&#45;&gt;FournisseurdetailsComponent  -->
<g id="edge28" class="edge">
<title>FournisseurModule&#45;&gt;FournisseurdetailsComponent </title>
<path fill="none" stroke="#000000" stroke-dasharray="5,2" d="M2746,-198.0109C2746,-198.0109 2746,-227.855 2746,-227.855"/>
<polygon fill="#000000" stroke="#000000" points="2742.5001,-227.8549 2746,-237.855 2749.5001,-227.855 2742.5001,-227.8549"/>
</g>
<!-- RoutfournisseurComponent  -->
<g id="node31" class="node">
<title>RoutfournisseurComponent </title>
<polygon fill="#fb8072" stroke="#000000" points="2634.5358,-274 2459.4642,-274 2459.4642,-238 2634.5358,-238 2634.5358,-274"/>
<text text-anchor="middle" x="2547" y="-251.8" font-family="Times,serif" font-size="14.00" fill="#000000">RoutfournisseurComponent </text>
</g>
<!-- FournisseurModule&#45;&gt;RoutfournisseurComponent  -->
<g id="edge29" class="edge">
<title>FournisseurModule&#45;&gt;RoutfournisseurComponent </title>
<path fill="none" stroke="#000000" stroke-dasharray="5,2" d="M2683.28,-192C2631.3178,-192 2565.9501,-192 2565.9501,-192 2565.9501,-192 2565.9501,-227.8314 2565.9501,-227.8314"/>
<polygon fill="#000000" stroke="#000000" points="2562.4502,-227.8313 2565.9501,-237.8314 2569.4502,-227.8314 2562.4502,-227.8313"/>
</g>
<!-- RoutingModule -->
<g id="node28" class="node">
<title>RoutingModule</title>
<polygon fill="#8dd3c7" stroke="#000000" points="2636.1681,-122 2633.1681,-126 2612.1681,-126 2609.1681,-122 2531.8319,-122 2531.8319,-86 2636.1681,-86 2636.1681,-122"/>
<text text-anchor="middle" x="2584" y="-99.8" font-family="Times,serif" font-size="14.00" fill="#000000">RoutingModule</text>
</g>
<!-- RoutingModule&#45;&gt;FournisseurModule -->
<g id="edge26" class="edge">
<title>RoutingModule&#45;&gt;FournisseurModule</title>
<path fill="none" stroke="#000000" d="M2600.234,-122.0109C2600.234,-144.4852 2600.234,-180 2600.234,-180 2600.234,-180 2673.3361,-180 2673.3361,-180"/>
<polygon fill="#000000" stroke="#000000" points="2673.3362,-183.5001 2683.3361,-180 2673.3361,-176.5001 2673.3362,-183.5001"/>
</g>
<!-- FournisseurService -->
<g id="node32" class="node">
<title>FournisseurService</title>
<ellipse fill="#fdb462" stroke="#000000" cx="2422" cy="-104" rx="85.6705" ry="18"/>
<text text-anchor="middle" x="2422" y="-99.8" font-family="Times,serif" font-size="14.00" fill="#000000">FournisseurService</text>
</g>
<!-- FournisseurService&#45;&gt;FournisseurModule -->
<g id="edge30" class="edge">
<title>FournisseurService&#45;&gt;FournisseurModule</title>
<path fill="none" stroke="#000000" d="M2483.5337,-116.8125C2483.5337,-139.875 2483.5337,-186 2483.5337,-186 2483.5337,-186 2673.1328,-186 2673.1328,-186"/>
<polygon fill="#000000" stroke="#000000" points="2673.1328,-189.5001 2683.1328,-186 2673.1327,-182.5001 2673.1328,-189.5001"/>
</g>
<!-- AddmenuComponent -->
<g id="node33" class="node">
<title>AddmenuComponent</title>
<polygon fill="#ffffb3" stroke="#000000" points="457.045,-122 320.955,-122 320.955,-86 457.045,-86 457.045,-122"/>
<text text-anchor="middle" x="389" y="-99.8" font-family="Times,serif" font-size="14.00" fill="#000000">AddmenuComponent</text>
</g>
<!-- AddmenuComponent&#45;&gt;RestaurantmenuModule -->
<g id="edge31" class="edge">
<title>AddmenuComponent&#45;&gt;RestaurantmenuModule</title>
<path fill="none" stroke="#000000" d="M413.7611,-122.0109C413.7611,-122.0109 413.7611,-151.855 413.7611,-151.855"/>
<polygon fill="#000000" stroke="#000000" points="410.2612,-151.8549 413.7611,-161.855 417.2612,-151.855 410.2612,-151.8549"/>
</g>
<!-- PricePipe -->
<g id="node34" class="node">
<title>PricePipe</title>
<polygon fill="#ffffb3" stroke="#000000" points="302.6517,-122 233.3483,-122 233.3483,-86 302.6517,-86 302.6517,-122"/>
<text text-anchor="middle" x="268" y="-99.8" font-family="Times,serif" font-size="14.00" fill="#000000">PricePipe</text>
</g>
<!-- PricePipe&#45;&gt;RestaurantmenuModule -->
<g id="edge32" class="edge">
<title>PricePipe&#45;&gt;RestaurantmenuModule</title>
<path fill="none" stroke="#000000" d="M302.9178,-104C308.1188,-104 311.7767,-104 311.7767,-104 311.7767,-104 311.7767,-180 311.7767,-180 311.7767,-180 316.6752,-180 316.6752,-180"/>
<polygon fill="#000000" stroke="#000000" points="316.6752,-183.5001 326.6752,-180 316.6752,-176.5001 316.6752,-183.5001"/>
</g>
<!-- RestaurantmenuComponent -->
<g id="node35" class="node">
<title>RestaurantmenuComponent</title>
<polygon fill="#ffffb3" stroke="#000000" points="215.3047,-122 42.6953,-122 42.6953,-86 215.3047,-86 215.3047,-122"/>
<text text-anchor="middle" x="129" y="-99.8" font-family="Times,serif" font-size="14.00" fill="#000000">RestaurantmenuComponent</text>
</g>
<!-- RestaurantmenuComponent&#45;&gt;RestaurantmenuModule -->
<g id="edge33" class="edge">
<title>RestaurantmenuComponent&#45;&gt;RestaurantmenuModule</title>
<path fill="none" stroke="#000000" d="M191.2313,-122.207C191.2313,-127.5549 191.2313,-132 191.2313,-132 191.2313,-132 370.2501,-132 370.2501,-132 370.2501,-132 370.2501,-151.8533 370.2501,-151.8533"/>
<polygon fill="#000000" stroke="#000000" points="366.7502,-151.8532 370.2501,-161.8533 373.7502,-151.8533 366.7502,-151.8532"/>
</g>
<!-- AddProductComponent -->
<g id="node36" class="node">
<title>AddProductComponent</title>
<polygon fill="#ffffb3" stroke="#000000" points="942.4874,-122 793.5126,-122 793.5126,-86 942.4874,-86 942.4874,-122"/>
<text text-anchor="middle" x="868" y="-99.8" font-family="Times,serif" font-size="14.00" fill="#000000">AddProductComponent</text>
</g>
<!-- AddProductComponent&#45;&gt;StockModule -->
<g id="edge34" class="edge">
<title>AddProductComponent&#45;&gt;StockModule</title>
<path fill="none" stroke="#000000" d="M841.2493,-122.1467C841.2493,-135.7395 841.2493,-152 841.2493,-152 841.2493,-152 564.3866,-152 564.3866,-152 564.3866,-152 564.3866,-152.9793 564.3866,-152.9793"/>
<polygon fill="#000000" stroke="#000000" points="560.8867,-151.793 564.3866,-161.793 567.8867,-151.7931 560.8867,-151.793"/>
</g>
<!-- DetailStockComponent -->
<g id="node37" class="node">
<title>DetailStockComponent</title>
<polygon fill="#ffffb3" stroke="#000000" points="775.9284,-122 628.0716,-122 628.0716,-86 775.9284,-86 775.9284,-122"/>
<text text-anchor="middle" x="702" y="-99.8" font-family="Times,serif" font-size="14.00" fill="#000000">DetailStockComponent</text>
</g>
<!-- DetailStockComponent&#45;&gt;StockModule -->
<g id="edge35" class="edge">
<title>DetailStockComponent&#45;&gt;StockModule</title>
<path fill="none" stroke="#000000" d="M682.6129,-122.1097C682.6129,-131.897 682.6129,-142 682.6129,-142 682.6129,-142 542.0544,-142 542.0544,-142 542.0544,-142 542.0544,-151.8903 542.0544,-151.8903"/>
<polygon fill="#000000" stroke="#000000" points="538.5544,-151.8903 542.0544,-161.8903 545.5544,-151.8904 538.5544,-151.8903"/>
</g>
<!-- StockComponent -->
<g id="node38" class="node">
<title>StockComponent</title>
<polygon fill="#ffffb3" stroke="#000000" points="610.7204,-122 497.2796,-122 497.2796,-86 610.7204,-86 610.7204,-122"/>
<text text-anchor="middle" x="554" y="-99.8" font-family="Times,serif" font-size="14.00" fill="#000000">StockComponent</text>
</g>
<!-- StockComponent&#45;&gt;StockModule -->
<g id="edge36" class="edge">
<title>StockComponent&#45;&gt;StockModule</title>
<path fill="none" stroke="#000000" d="M519.7221,-122.0109C519.7221,-122.0109 519.7221,-151.855 519.7221,-151.855"/>
<polygon fill="#000000" stroke="#000000" points="516.2222,-151.8549 519.7221,-161.855 523.2222,-151.855 516.2222,-151.8549"/>
</g>
</g>
</svg>
