<?xml version="1.0" encoding="UTF-8" standalone="no"?>
<!DOCTYPE svg PUBLIC "-//W3C//DTD SVG 1.1//EN"
 "http://www.w3.org/Graphics/SVG/1.1/DTD/svg11.dtd">
<!-- Generated by graphviz version 2.40.1 (20161225.0304)
 -->
<!-- Title: dependencies Pages: 1 -->
<svg width="982pt" height="284pt"
 viewBox="0.00 0.00 982.00 284.00" xmlns="http://www.w3.org/2000/svg" xmlns:xlink="http://www.w3.org/1999/xlink">
<g id="graph0" class="graph" transform="scale(1 1) rotate(0) translate(4 280)">
<title>dependencies</title>
<polygon fill="#ffffff" stroke="transparent" points="-4,4 -4,-280 978,-280 978,4 -4,4"/>
<text text-anchor="start" x="466.0091" y="-42.4" font-family="sans-serif" font-weight="bold" font-size="14.00" fill="#000000">Legend</text>
<polygon fill="#ffffb3" stroke="transparent" points="253,-10 253,-30 273,-30 273,-10 253,-10"/>
<text text-anchor="start" x="276.629" y="-15.4" font-family="sans-serif" font-size="14.00" fill="#000000"> &#160;Declarations</text>
<polygon fill="#8dd3c7" stroke="transparent" points="366,-10 366,-30 386,-30 386,-10 366,-10"/>
<text text-anchor="start" x="389.7251" y="-15.4" font-family="sans-serif" font-size="14.00" fill="#000000"> &#160;Module</text>
<polygon fill="#80b1d3" stroke="transparent" points="452,-10 452,-30 472,-30 472,-10 452,-10"/>
<text text-anchor="start" x="475.7812" y="-15.4" font-family="sans-serif" font-size="14.00" fill="#000000"> &#160;Bootstrap</text>
<polygon fill="#fdb462" stroke="transparent" points="549,-10 549,-30 569,-30 569,-10 549,-10"/>
<text text-anchor="start" x="572.6732" y="-15.4" font-family="sans-serif" font-size="14.00" fill="#000000"> &#160;Providers</text>
<polygon fill="#fb8072" stroke="transparent" points="645,-10 645,-30 665,-30 665,-10 645,-10"/>
<text text-anchor="start" x="668.7258" y="-15.4" font-family="sans-serif" font-size="14.00" fill="#000000"> &#160;Exports</text>
<g id="clust1" class="cluster">
<title>cluster_FournisseurModule</title>
<polygon fill="none" stroke="#000000" stroke-dasharray="1,5" points="8,-70 8,-268 966,-268 966,-70 8,-70"/>
</g>
<g id="clust2" class="cluster">
<title>cluster_FournisseurModule_declarations</title>
<polygon fill="none" stroke="#000000" points="340,-78 340,-130 958,-130 958,-78 340,-78"/>
</g>
<g id="clust6" class="cluster">
<title>cluster_FournisseurModule_imports</title>
<polygon fill="none" stroke="#000000" points="212,-78 212,-130 332,-130 332,-78 212,-78"/>
</g>
<g id="clust7" class="cluster">
<title>cluster_FournisseurModule_exports</title>
<polygon fill="none" stroke="#000000" points="139,-208 139,-260 767,-260 767,-208 139,-208"/>
</g>
<g id="clust9" class="cluster">
<title>cluster_FournisseurModule_providers</title>
<polygon fill="none" stroke="#000000" points="16,-78 16,-130 204,-130 204,-78 16,-78"/>
</g>
<!-- FournisseurcomponentComponent -->
<g id="node1" class="node">
<title>FournisseurcomponentComponent</title>
<polygon fill="#ffffb3" stroke="#000000" points="949.6413,-122 740.3587,-122 740.3587,-86 949.6413,-86 949.6413,-122"/>
<text text-anchor="middle" x="845" y="-99.8" font-family="Times,serif" font-size="14.00" fill="#000000">FournisseurcomponentComponent</text>
</g>
<!-- FournisseurModule -->
<g id="node4" class="node">
<title>FournisseurModule</title>
<polygon fill="#8dd3c7" stroke="#000000" points="496.6485,-187 493.6485,-191 472.6485,-191 469.6485,-187 371.3515,-187 371.3515,-151 496.6485,-151 496.6485,-187"/>
<text text-anchor="middle" x="434" y="-164.8" font-family="Times,serif" font-size="14.00" fill="#000000">FournisseurModule</text>
</g>
<!-- FournisseurcomponentComponent&#45;&gt;FournisseurModule -->
<g id="edge1" class="edge">
<title>FournisseurcomponentComponent&#45;&gt;FournisseurModule</title>
<path fill="none" stroke="#000000" d="M749.375,-122.1061C749.375,-141.3391 749.375,-169 749.375,-169 749.375,-169 506.685,-169 506.685,-169"/>
<polygon fill="#000000" stroke="#000000" points="506.6851,-165.5001 496.685,-169 506.685,-172.5001 506.6851,-165.5001"/>
</g>
<!-- FournisseurdetailsComponent -->
<g id="node2" class="node">
<title>FournisseurdetailsComponent</title>
<polygon fill="#ffffb3" stroke="#000000" points="721.9762,-122 538.0238,-122 538.0238,-86 721.9762,-86 721.9762,-122"/>
<text text-anchor="middle" x="630" y="-99.8" font-family="Times,serif" font-size="14.00" fill="#000000">FournisseurdetailsComponent</text>
</g>
<!-- FournisseurdetailsComponent&#45;&gt;FournisseurModule -->
<g id="edge2" class="edge">
<title>FournisseurdetailsComponent&#45;&gt;FournisseurModule</title>
<path fill="none" stroke="#000000" d="M541.7207,-122.027C541.7207,-138.3976 541.7207,-160 541.7207,-160 541.7207,-160 506.6616,-160 506.6616,-160"/>
<polygon fill="#000000" stroke="#000000" points="506.6616,-156.5001 496.6616,-160 506.6615,-163.5001 506.6616,-156.5001"/>
</g>
<!-- RoutfournisseurComponent -->
<g id="node3" class="node">
<title>RoutfournisseurComponent</title>
<polygon fill="#ffffb3" stroke="#000000" points="519.5364,-122 348.4636,-122 348.4636,-86 519.5364,-86 519.5364,-122"/>
<text text-anchor="middle" x="434" y="-99.8" font-family="Times,serif" font-size="14.00" fill="#000000">RoutfournisseurComponent</text>
</g>
<!-- RoutfournisseurComponent&#45;&gt;FournisseurModule -->
<g id="edge3" class="edge">
<title>RoutfournisseurComponent&#45;&gt;FournisseurModule</title>
<path fill="none" stroke="#000000" d="M434,-122.1061C434,-122.1061 434,-140.991 434,-140.991"/>
<polygon fill="#000000" stroke="#000000" points="430.5001,-140.9909 434,-150.991 437.5001,-140.991 430.5001,-140.9909"/>
</g>
<!-- FournisseurcomponentComponent  -->
<g id="node6" class="node">
<title>FournisseurcomponentComponent </title>
<polygon fill="#fb8072" stroke="#000000" points="758.641,-252 545.359,-252 545.359,-216 758.641,-216 758.641,-252"/>
<text text-anchor="middle" x="652" y="-229.8" font-family="Times,serif" font-size="14.00" fill="#000000">FournisseurcomponentComponent </text>
</g>
<!-- FournisseurModule&#45;&gt;FournisseurcomponentComponent  -->
<g id="edge5" class="edge">
<title>FournisseurModule&#45;&gt;FournisseurcomponentComponent </title>
<path fill="none" stroke="#000000" stroke-dasharray="5,2" d="M496.915,-178C555.4536,-178 633.7088,-178 633.7088,-178 633.7088,-178 633.7088,-205.973 633.7088,-205.973"/>
<polygon fill="#000000" stroke="#000000" points="630.2089,-205.973 633.7088,-215.973 637.2089,-205.973 630.2089,-205.973"/>
</g>
<!-- FournisseurdetailsComponent  -->
<g id="node7" class="node">
<title>FournisseurdetailsComponent </title>
<polygon fill="#fb8072" stroke="#000000" points="527.9768,-252 340.0232,-252 340.0232,-216 527.9768,-216 527.9768,-252"/>
<text text-anchor="middle" x="434" y="-229.8" font-family="Times,serif" font-size="14.00" fill="#000000">FournisseurdetailsComponent </text>
</g>
<!-- FournisseurModule&#45;&gt;FournisseurdetailsComponent  -->
<g id="edge6" class="edge">
<title>FournisseurModule&#45;&gt;FournisseurdetailsComponent </title>
<path fill="none" stroke="#000000" stroke-dasharray="5,2" d="M434,-187.1061C434,-187.1061 434,-205.991 434,-205.991"/>
<polygon fill="#000000" stroke="#000000" points="430.5001,-205.9909 434,-215.991 437.5001,-205.991 430.5001,-205.9909"/>
</g>
<!-- RoutfournisseurComponent  -->
<g id="node8" class="node">
<title>RoutfournisseurComponent </title>
<polygon fill="#fb8072" stroke="#000000" points="322.5358,-252 147.4642,-252 147.4642,-216 322.5358,-216 322.5358,-252"/>
<text text-anchor="middle" x="235" y="-229.8" font-family="Times,serif" font-size="14.00" fill="#000000">RoutfournisseurComponent </text>
</g>
<!-- FournisseurModule&#45;&gt;RoutfournisseurComponent  -->
<g id="edge7" class="edge">
<title>FournisseurModule&#45;&gt;RoutfournisseurComponent </title>
<path fill="none" stroke="#000000" stroke-dasharray="5,2" d="M371.28,-178C319.3178,-178 253.9501,-178 253.9501,-178 253.9501,-178 253.9501,-205.973 253.9501,-205.973"/>
<polygon fill="#000000" stroke="#000000" points="250.4502,-205.973 253.9501,-215.973 257.4502,-205.973 250.4502,-205.973"/>
</g>
<!-- RoutingModule -->
<g id="node5" class="node">
<title>RoutingModule</title>
<polygon fill="#8dd3c7" stroke="#000000" points="324.1681,-122 321.1681,-126 300.1681,-126 297.1681,-122 219.8319,-122 219.8319,-86 324.1681,-86 324.1681,-122"/>
<text text-anchor="middle" x="272" y="-99.8" font-family="Times,serif" font-size="14.00" fill="#000000">RoutingModule</text>
</g>
<!-- RoutingModule&#45;&gt;FournisseurModule -->
<g id="edge4" class="edge">
<title>RoutingModule&#45;&gt;FournisseurModule</title>
<path fill="none" stroke="#000000" d="M288.234,-122.027C288.234,-138.3976 288.234,-160 288.234,-160 288.234,-160 361.3361,-160 361.3361,-160"/>
<polygon fill="#000000" stroke="#000000" points="361.3362,-163.5001 371.3361,-160 361.3361,-156.5001 361.3362,-163.5001"/>
</g>
<!-- FournisseurService -->
<g id="node9" class="node">
<title>FournisseurService</title>
<ellipse fill="#fdb462" stroke="#000000" cx="110" cy="-104" rx="85.6705" ry="18"/>
<text text-anchor="middle" x="110" y="-99.8" font-family="Times,serif" font-size="14.00" fill="#000000">FournisseurService</text>
</g>
<!-- FournisseurService&#45;&gt;FournisseurModule -->
<g id="edge8" class="edge">
<title>FournisseurService&#45;&gt;FournisseurModule</title>
<path fill="none" stroke="#000000" d="M171.5337,-116.5327C171.5337,-135.4209 171.5337,-169 171.5337,-169 171.5337,-169 361.1328,-169 361.1328,-169"/>
<polygon fill="#000000" stroke="#000000" points="361.1328,-172.5001 371.1328,-169 361.1327,-165.5001 361.1328,-172.5001"/>
</g>
</g>
</svg>
