<?xml version="1.0" encoding="UTF-8" standalone="no"?>
<!DOCTYPE svg PUBLIC "-//W3C//DTD SVG 1.1//EN"
 "http://www.w3.org/Graphics/SVG/1.1/DTD/svg11.dtd">
<!-- Generated by graphviz version 2.40.1 (20161225.0304)
 -->
<!-- Title: dependencies Pages: 1 -->
<svg width="504pt" height="211pt"
 viewBox="0.00 0.00 504.00 211.00" xmlns="http://www.w3.org/2000/svg" xmlns:xlink="http://www.w3.org/1999/xlink">
<g id="graph0" class="graph" transform="scale(1 1) rotate(0) translate(4 207)">
<title>dependencies</title>
<polygon fill="#ffffff" stroke="transparent" points="-4,4 -4,-207 500,-207 500,4 -4,4"/>
<text text-anchor="start" x="227.0091" y="-42.4" font-family="sans-serif" font-weight="bold" font-size="14.00" fill="#000000">Legend</text>
<polygon fill="#ffffb3" stroke="transparent" points="14,-10 14,-30 34,-30 34,-10 14,-10"/>
<text text-anchor="start" x="37.629" y="-15.4" font-family="sans-serif" font-size="14.00" fill="#000000"> &#160;Declarations</text>
<polygon fill="#8dd3c7" stroke="transparent" points="127,-10 127,-30 147,-30 147,-10 127,-10"/>
<text text-anchor="start" x="150.7251" y="-15.4" font-family="sans-serif" font-size="14.00" fill="#000000"> &#160;Module</text>
<polygon fill="#80b1d3" stroke="transparent" points="213,-10 213,-30 233,-30 233,-10 213,-10"/>
<text text-anchor="start" x="236.7812" y="-15.4" font-family="sans-serif" font-size="14.00" fill="#000000"> &#160;Bootstrap</text>
<polygon fill="#fdb462" stroke="transparent" points="310,-10 310,-30 330,-30 330,-10 310,-10"/>
<text text-anchor="start" x="333.6732" y="-15.4" font-family="sans-serif" font-size="14.00" fill="#000000"> &#160;Providers</text>
<polygon fill="#fb8072" stroke="transparent" points="406,-10 406,-30 426,-30 426,-10 406,-10"/>
<text text-anchor="start" x="429.7258" y="-15.4" font-family="sans-serif" font-size="14.00" fill="#000000"> &#160;Exports</text>
<g id="clust1" class="cluster">
<title>cluster_FournisseurModule</title>
<polygon fill="none" stroke="#000000" stroke-dasharray="1,5" points="26,-70 26,-195 470,-195 470,-70 26,-70"/>
</g>
<g id="clust2" class="cluster">
<title>cluster_FournisseurModule_declarations</title>
<polygon fill="none" stroke="#000000" points="34,-78 34,-130 462,-130 462,-78 34,-78"/>
</g>
<!-- FournisseurcomponentComponent -->
<g id="node1" class="node">
<title>FournisseurcomponentComponent</title>
<polygon fill="#ffffb3" stroke="#000000" points="453.6413,-122 244.3587,-122 244.3587,-86 453.6413,-86 453.6413,-122"/>
<text text-anchor="middle" x="349" y="-99.8" font-family="Times,serif" font-size="14.00" fill="#000000">FournisseurcomponentComponent</text>
</g>
<!-- FournisseurModule -->
<g id="node3" class="node">
<title>FournisseurModule</title>
<polygon fill="#8dd3c7" stroke="#000000" points="303.6485,-187 300.6485,-191 279.6485,-191 276.6485,-187 178.3515,-187 178.3515,-151 303.6485,-151 303.6485,-187"/>
<text text-anchor="middle" x="241" y="-164.8" font-family="Times,serif" font-size="14.00" fill="#000000">FournisseurModule</text>
</g>
<!-- FournisseurcomponentComponent&#45;&gt;FournisseurModule -->
<g id="edge1" class="edge">
<title>FournisseurcomponentComponent&#45;&gt;FournisseurModule</title>
<path fill="none" stroke="#000000" d="M274.0018,-122.1061C274.0018,-122.1061 274.0018,-140.991 274.0018,-140.991"/>
<polygon fill="#000000" stroke="#000000" points="270.5018,-140.9909 274.0018,-150.991 277.5018,-140.991 270.5018,-140.9909"/>
</g>
<!-- FournisseurdetailsComponent -->
<g id="node2" class="node">
<title>FournisseurdetailsComponent</title>
<polygon fill="#ffffb3" stroke="#000000" points="225.9762,-122 42.0238,-122 42.0238,-86 225.9762,-86 225.9762,-122"/>
<text text-anchor="middle" x="134" y="-99.8" font-family="Times,serif" font-size="14.00" fill="#000000">FournisseurdetailsComponent</text>
</g>
<!-- FournisseurdetailsComponent&#45;&gt;FournisseurModule -->
<g id="edge2" class="edge">
<title>FournisseurdetailsComponent&#45;&gt;FournisseurModule</title>
<path fill="none" stroke="#000000" d="M202.0821,-122.1061C202.0821,-122.1061 202.0821,-140.991 202.0821,-140.991"/>
<polygon fill="#000000" stroke="#000000" points="198.5821,-140.9909 202.0821,-150.991 205.5821,-140.991 198.5821,-140.9909"/>
</g>
</g>
</svg>
