<?xml version="1.0" encoding="UTF-8" standalone="no"?>
<!DOCTYPE svg PUBLIC "-//W3C//DTD SVG 1.1//EN"
 "http://www.w3.org/Graphics/SVG/1.1/DTD/svg11.dtd">
<!-- Generated by graphviz version 2.40.1 (20161225.0304)
 -->
<!-- Title: dependencies Pages: 1 -->
<svg width="1468pt" height="284pt"
 viewBox="0.00 0.00 1468.00 284.00" xmlns="http://www.w3.org/2000/svg" xmlns:xlink="http://www.w3.org/1999/xlink">
<g id="graph0" class="graph" transform="scale(1 1) rotate(0) translate(4 280)">
<title>dependencies</title>
<polygon fill="#ffffff" stroke="transparent" points="-4,4 -4,-280 1464,-280 1464,4 -4,4"/>
<text text-anchor="start" x="709.0091" y="-42.4" font-family="sans-serif" font-weight="bold" font-size="14.00" fill="#000000">Legend</text>
<polygon fill="#ffffb3" stroke="transparent" points="496,-10 496,-30 516,-30 516,-10 496,-10"/>
<text text-anchor="start" x="519.629" y="-15.4" font-family="sans-serif" font-size="14.00" fill="#000000"> &#160;Declarations</text>
<polygon fill="#8dd3c7" stroke="transparent" points="609,-10 609,-30 629,-30 629,-10 609,-10"/>
<text text-anchor="start" x="632.7251" y="-15.4" font-family="sans-serif" font-size="14.00" fill="#000000"> &#160;Module</text>
<polygon fill="#80b1d3" stroke="transparent" points="695,-10 695,-30 715,-30 715,-10 695,-10"/>
<text text-anchor="start" x="718.7812" y="-15.4" font-family="sans-serif" font-size="14.00" fill="#000000"> &#160;Bootstrap</text>
<polygon fill="#fdb462" stroke="transparent" points="792,-10 792,-30 812,-30 812,-10 792,-10"/>
<text text-anchor="start" x="815.6732" y="-15.4" font-family="sans-serif" font-size="14.00" fill="#000000"> &#160;Providers</text>
<polygon fill="#fb8072" stroke="transparent" points="888,-10 888,-30 908,-30 908,-10 888,-10"/>
<text text-anchor="start" x="911.7258" y="-15.4" font-family="sans-serif" font-size="14.00" fill="#000000"> &#160;Exports</text>
<g id="clust1" class="cluster">
<title>cluster_CoreModule</title>
<polygon fill="none" stroke="#000000" stroke-dasharray="1,5" points="8,-70 8,-268 1452,-268 1452,-70 8,-70"/>
</g>
<g id="clust2" class="cluster">
<title>cluster_CoreModule_declarations</title>
<polygon fill="none" stroke="#000000" points="729,-78 729,-130 1444,-130 1444,-78 729,-78"/>
</g>
<g id="clust8" class="cluster">
<title>cluster_CoreModule_imports</title>
<polygon fill="none" stroke="#000000" points="16,-78 16,-130 721,-130 721,-78 16,-78"/>
</g>
<g id="clust9" class="cluster">
<title>cluster_CoreModule_exports</title>
<polygon fill="none" stroke="#000000" points="582,-208 582,-260 877,-260 877,-208 582,-208"/>
</g>
<!-- HeaderComponent -->
<g id="node1" class="node">
<title>HeaderComponent</title>
<polygon fill="#ffffb3" stroke="#000000" points="1435.7437,-122 1314.2563,-122 1314.2563,-86 1435.7437,-86 1435.7437,-122"/>
<text text-anchor="middle" x="1375" y="-99.8" font-family="Times,serif" font-size="14.00" fill="#000000">HeaderComponent</text>
</g>
<!-- CoreModule -->
<g id="node6" class="node">
<title>CoreModule</title>
<polygon fill="#8dd3c7" stroke="#000000" points="770.2619,-187 767.2619,-191 746.2619,-191 743.2619,-187 683.7381,-187 683.7381,-151 770.2619,-151 770.2619,-187"/>
<text text-anchor="middle" x="727" y="-164.8" font-family="Times,serif" font-size="14.00" fill="#000000">CoreModule</text>
</g>
<!-- HeaderComponent&#45;&gt;CoreModule -->
<g id="edge1" class="edge">
<title>HeaderComponent&#45;&gt;CoreModule</title>
<path fill="none" stroke="#000000" d="M1375,-122.0109C1375,-144.4852 1375,-180 1375,-180 1375,-180 780.2708,-180 780.2708,-180"/>
<polygon fill="#000000" stroke="#000000" points="780.2708,-176.5001 770.2708,-180 780.2708,-183.5001 780.2708,-176.5001"/>
</g>
<!-- ListusersComponent -->
<g id="node2" class="node">
<title>ListusersComponent</title>
<polygon fill="#ffffb3" stroke="#000000" points="1295.8753,-122 1164.1247,-122 1164.1247,-86 1295.8753,-86 1295.8753,-122"/>
<text text-anchor="middle" x="1230" y="-99.8" font-family="Times,serif" font-size="14.00" fill="#000000">ListusersComponent</text>
</g>
<!-- ListusersComponent&#45;&gt;CoreModule -->
<g id="edge2" class="edge">
<title>ListusersComponent&#45;&gt;CoreModule</title>
<path fill="none" stroke="#000000" d="M1230,-122.1289C1230,-142.5724 1230,-173 1230,-173 1230,-173 780.3208,-173 780.3208,-173"/>
<polygon fill="#000000" stroke="#000000" points="780.3209,-169.5001 770.3208,-173 780.3208,-176.5001 780.3209,-169.5001"/>
</g>
<!-- LoginComponent -->
<g id="node3" class="node">
<title>LoginComponent</title>
<polygon fill="#ffffb3" stroke="#000000" points="1146.2758,-122 1031.7242,-122 1031.7242,-86 1146.2758,-86 1146.2758,-122"/>
<text text-anchor="middle" x="1089" y="-99.8" font-family="Times,serif" font-size="14.00" fill="#000000">LoginComponent</text>
</g>
<!-- LoginComponent&#45;&gt;CoreModule -->
<g id="edge3" class="edge">
<title>LoginComponent&#45;&gt;CoreModule</title>
<path fill="none" stroke="#000000" d="M1089,-122.2667C1089,-140.5552 1089,-166 1089,-166 1089,-166 780.3061,-166 780.3061,-166"/>
<polygon fill="#000000" stroke="#000000" points="780.3061,-162.5001 770.3061,-166 780.3061,-169.5001 780.3061,-162.5001"/>
</g>
<!-- ProductsComponent -->
<g id="node4" class="node">
<title>ProductsComponent</title>
<polygon fill="#ffffb3" stroke="#000000" points="1013.3258,-122 882.6742,-122 882.6742,-86 1013.3258,-86 1013.3258,-122"/>
<text text-anchor="middle" x="948" y="-99.8" font-family="Times,serif" font-size="14.00" fill="#000000">ProductsComponent</text>
</g>
<!-- ProductsComponent&#45;&gt;CoreModule -->
<g id="edge4" class="edge">
<title>ProductsComponent&#45;&gt;CoreModule</title>
<path fill="none" stroke="#000000" d="M948,-122.0091C948,-138.0494 948,-159 948,-159 948,-159 780.3988,-159 780.3988,-159"/>
<polygon fill="#000000" stroke="#000000" points="780.3988,-155.5001 770.3988,-159 780.3988,-162.5001 780.3988,-155.5001"/>
</g>
<!-- RegisterComponent -->
<g id="node5" class="node">
<title>RegisterComponent</title>
<polygon fill="#ffffb3" stroke="#000000" points="864.9846,-122 737.0154,-122 737.0154,-86 864.9846,-86 864.9846,-122"/>
<text text-anchor="middle" x="801" y="-99.8" font-family="Times,serif" font-size="14.00" fill="#000000">RegisterComponent</text>
</g>
<!-- RegisterComponent&#45;&gt;CoreModule -->
<g id="edge5" class="edge">
<title>RegisterComponent&#45;&gt;CoreModule</title>
<path fill="none" stroke="#000000" d="M753.6943,-122.1061C753.6943,-122.1061 753.6943,-140.991 753.6943,-140.991"/>
<polygon fill="#000000" stroke="#000000" points="750.1943,-140.9909 753.6943,-150.991 757.1943,-140.991 750.1943,-140.9909"/>
</g>
<!-- CoreRoutingModule  -->
<g id="node12" class="node">
<title>CoreRoutingModule </title>
<polygon fill="#fb8072" stroke="#000000" points="868.8799,-252 733.1201,-252 733.1201,-216 868.8799,-216 868.8799,-252"/>
<text text-anchor="middle" x="801" y="-229.8" font-family="Times,serif" font-size="14.00" fill="#000000">CoreRoutingModule </text>
</g>
<!-- CoreModule&#45;&gt;CoreRoutingModule  -->
<g id="edge11" class="edge">
<title>CoreModule&#45;&gt;CoreRoutingModule </title>
<path fill="none" stroke="#000000" stroke-dasharray="5,2" d="M751.8456,-187.1061C751.8456,-187.1061 751.8456,-205.991 751.8456,-205.991"/>
<polygon fill="#000000" stroke="#000000" points="748.3456,-205.9909 751.8456,-215.991 755.3456,-205.991 748.3456,-205.9909"/>
</g>
<!-- HeaderComponent  -->
<g id="node13" class="node">
<title>HeaderComponent </title>
<polygon fill="#fb8072" stroke="#000000" points="715.7436,-252 590.2564,-252 590.2564,-216 715.7436,-216 715.7436,-252"/>
<text text-anchor="middle" x="653" y="-229.8" font-family="Times,serif" font-size="14.00" fill="#000000">HeaderComponent </text>
</g>
<!-- CoreModule&#45;&gt;HeaderComponent  -->
<g id="edge12" class="edge">
<title>CoreModule&#45;&gt;HeaderComponent </title>
<path fill="none" stroke="#000000" stroke-dasharray="5,2" d="M699.6205,-187.1061C699.6205,-187.1061 699.6205,-205.991 699.6205,-205.991"/>
<polygon fill="#000000" stroke="#000000" points="696.1205,-205.9909 699.6205,-215.991 703.1205,-205.991 696.1205,-205.9909"/>
</g>
<!-- Calendar1Module -->
<g id="node7" class="node">
<title>Calendar1Module</title>
<polygon fill="#8dd3c7" stroke="#000000" points="712.5814,-122 709.5814,-126 688.5814,-126 685.5814,-122 595.4186,-122 595.4186,-86 712.5814,-86 712.5814,-122"/>
<text text-anchor="middle" x="654" y="-99.8" font-family="Times,serif" font-size="14.00" fill="#000000">Calendar1Module</text>
</g>
<!-- Calendar1Module&#45;&gt;CoreModule -->
<g id="edge6" class="edge">
<title>Calendar1Module&#45;&gt;CoreModule</title>
<path fill="none" stroke="#000000" d="M698.08,-122.1061C698.08,-122.1061 698.08,-140.991 698.08,-140.991"/>
<polygon fill="#000000" stroke="#000000" points="694.58,-140.9909 698.08,-150.991 701.58,-140.991 694.58,-140.9909"/>
</g>
<!-- CoreRoutingModule -->
<g id="node8" class="node">
<title>CoreRoutingModule</title>
<polygon fill="#8dd3c7" stroke="#000000" points="577.8795,-122 574.8795,-126 553.8795,-126 550.8795,-122 446.1205,-122 446.1205,-86 577.8795,-86 577.8795,-122"/>
<text text-anchor="middle" x="512" y="-99.8" font-family="Times,serif" font-size="14.00" fill="#000000">CoreRoutingModule</text>
</g>
<!-- CoreRoutingModule&#45;&gt;CoreModule -->
<g id="edge7" class="edge">
<title>CoreRoutingModule&#45;&gt;CoreModule</title>
<path fill="none" stroke="#000000" d="M512,-122.0091C512,-138.0494 512,-159 512,-159 512,-159 673.4915,-159 673.4915,-159"/>
<polygon fill="#000000" stroke="#000000" points="673.4916,-162.5001 683.4915,-159 673.4915,-155.5001 673.4916,-162.5001"/>
</g>
<!-- FournisseurModule -->
<g id="node9" class="node">
<title>FournisseurModule</title>
<polygon fill="#8dd3c7" stroke="#000000" points="427.6485,-122 424.6485,-126 403.6485,-126 400.6485,-122 302.3515,-122 302.3515,-86 427.6485,-86 427.6485,-122"/>
<text text-anchor="middle" x="365" y="-99.8" font-family="Times,serif" font-size="14.00" fill="#000000">FournisseurModule</text>
</g>
<!-- FournisseurModule&#45;&gt;CoreModule -->
<g id="edge8" class="edge">
<title>FournisseurModule&#45;&gt;CoreModule</title>
<path fill="none" stroke="#000000" d="M365,-122.2667C365,-140.5552 365,-166 365,-166 365,-166 673.6939,-166 673.6939,-166"/>
<polygon fill="#000000" stroke="#000000" points="673.6939,-169.5001 683.6939,-166 673.6939,-162.5001 673.6939,-169.5001"/>
</g>
<!-- RestaurantmenuModule -->
<g id="node10" class="node">
<title>RestaurantmenuModule</title>
<polygon fill="#8dd3c7" stroke="#000000" points="284.0226,-122 281.0226,-126 260.0226,-126 257.0226,-122 133.9774,-122 133.9774,-86 284.0226,-86 284.0226,-122"/>
<text text-anchor="middle" x="209" y="-99.8" font-family="Times,serif" font-size="14.00" fill="#000000">RestaurantmenuModule</text>
</g>
<!-- RestaurantmenuModule&#45;&gt;CoreModule -->
<g id="edge9" class="edge">
<title>RestaurantmenuModule&#45;&gt;CoreModule</title>
<path fill="none" stroke="#000000" d="M209,-122.1289C209,-142.5724 209,-173 209,-173 209,-173 673.7266,-173 673.7266,-173"/>
<polygon fill="#000000" stroke="#000000" points="673.7266,-176.5001 683.7266,-173 673.7265,-169.5001 673.7266,-176.5001"/>
</g>
<!-- StockModule -->
<g id="node11" class="node">
<title>StockModule</title>
<polygon fill="#8dd3c7" stroke="#000000" points="115.9387,-122 112.9387,-126 91.9387,-126 88.9387,-122 24.0613,-122 24.0613,-86 115.9387,-86 115.9387,-122"/>
<text text-anchor="middle" x="70" y="-99.8" font-family="Times,serif" font-size="14.00" fill="#000000">StockModule</text>
</g>
<!-- StockModule&#45;&gt;CoreModule -->
<g id="edge10" class="edge">
<title>StockModule&#45;&gt;CoreModule</title>
<path fill="none" stroke="#000000" d="M70,-122.0109C70,-144.4852 70,-180 70,-180 70,-180 673.6383,-180 673.6383,-180"/>
<polygon fill="#000000" stroke="#000000" points="673.6383,-183.5001 683.6383,-180 673.6383,-176.5001 673.6383,-183.5001"/>
</g>
</g>
</svg>
