<?xml version="1.0" encoding="UTF-8" standalone="no"?>
<!DOCTYPE svg PUBLIC "-//W3C//DTD SVG 1.1//EN"
 "http://www.w3.org/Graphics/SVG/1.1/DTD/svg11.dtd">
<!-- Generated by graphviz version 2.40.1 (20161225.0304)
 -->
<!-- Title: dependencies Pages: 1 -->
<svg width="504pt" height="211pt"
 viewBox="0.00 0.00 504.00 211.00" xmlns="http://www.w3.org/2000/svg" xmlns:xlink="http://www.w3.org/1999/xlink">
<g id="graph0" class="graph" transform="scale(1 1) rotate(0) translate(4 207)">
<title>dependencies</title>
<polygon fill="#ffffff" stroke="transparent" points="-4,4 -4,-207 500,-207 500,4 -4,4"/>
<text text-anchor="start" x="227.0091" y="-42.4" font-family="sans-serif" font-weight="bold" font-size="14.00" fill="#000000">Legend</text>
<polygon fill="#ffffb3" stroke="transparent" points="14,-10 14,-30 34,-30 34,-10 14,-10"/>
<text text-anchor="start" x="37.629" y="-15.4" font-family="sans-serif" font-size="14.00" fill="#000000"> &#160;Declarations</text>
<polygon fill="#8dd3c7" stroke="transparent" points="127,-10 127,-30 147,-30 147,-10 127,-10"/>
<text text-anchor="start" x="150.7251" y="-15.4" font-family="sans-serif" font-size="14.00" fill="#000000"> &#160;Module</text>
<polygon fill="#80b1d3" stroke="transparent" points="213,-10 213,-30 233,-30 233,-10 213,-10"/>
<text text-anchor="start" x="236.7812" y="-15.4" font-family="sans-serif" font-size="14.00" fill="#000000"> &#160;Bootstrap</text>
<polygon fill="#fdb462" stroke="transparent" points="310,-10 310,-30 330,-30 330,-10 310,-10"/>
<text text-anchor="start" x="333.6732" y="-15.4" font-family="sans-serif" font-size="14.00" fill="#000000"> &#160;Providers</text>
<polygon fill="#fb8072" stroke="transparent" points="406,-10 406,-30 426,-30 426,-10 406,-10"/>
<text text-anchor="start" x="429.7258" y="-15.4" font-family="sans-serif" font-size="14.00" fill="#000000"> &#160;Exports</text>
<g id="clust1" class="cluster">
<title>cluster_Calendar1Module</title>
<polygon fill="none" stroke="#000000" stroke-dasharray="1,5" points="74,-70 74,-195 422,-195 422,-70 74,-70"/>
</g>
<g id="clust2" class="cluster">
<title>cluster_Calendar1Module_declarations</title>
<polygon fill="none" stroke="#000000" points="82,-78 82,-130 414,-130 414,-78 82,-78"/>
</g>
<!-- CalendarComponent -->
<g id="node1" class="node">
<title>CalendarComponent</title>
<polygon fill="#ffffb3" stroke="#000000" points="405.8641,-122 274.1359,-122 274.1359,-86 405.8641,-86 405.8641,-122"/>
<text text-anchor="middle" x="340" y="-99.8" font-family="Times,serif" font-size="14.00" fill="#000000">CalendarComponent</text>
</g>
<!-- Calendar1Module -->
<g id="node3" class="node">
<title>Calendar1Module</title>
<polygon fill="#8dd3c7" stroke="#000000" points="314.5814,-187 311.5814,-191 290.5814,-191 287.5814,-187 197.4186,-187 197.4186,-151 314.5814,-151 314.5814,-187"/>
<text text-anchor="middle" x="256" y="-164.8" font-family="Times,serif" font-size="14.00" fill="#000000">Calendar1Module</text>
</g>
<!-- CalendarComponent&#45;&gt;Calendar1Module -->
<g id="edge1" class="edge">
<title>CalendarComponent&#45;&gt;Calendar1Module</title>
<path fill="none" stroke="#000000" d="M294.3044,-122.1061C294.3044,-122.1061 294.3044,-140.991 294.3044,-140.991"/>
<polygon fill="#000000" stroke="#000000" points="290.8044,-140.9909 294.3044,-150.991 297.8044,-140.991 290.8044,-140.9909"/>
</g>
<!-- CalendarDetailComponent -->
<g id="node2" class="node">
<title>CalendarDetailComponent</title>
<polygon fill="#ffffb3" stroke="#000000" points="256.0716,-122 89.9284,-122 89.9284,-86 256.0716,-86 256.0716,-122"/>
<text text-anchor="middle" x="173" y="-99.8" font-family="Times,serif" font-size="14.00" fill="#000000">CalendarDetailComponent</text>
</g>
<!-- CalendarDetailComponent&#45;&gt;Calendar1Module -->
<g id="edge2" class="edge">
<title>CalendarDetailComponent&#45;&gt;Calendar1Module</title>
<path fill="none" stroke="#000000" d="M226.7476,-122.1061C226.7476,-122.1061 226.7476,-140.991 226.7476,-140.991"/>
<polygon fill="#000000" stroke="#000000" points="223.2476,-140.9909 226.7476,-150.991 230.2476,-140.991 223.2476,-140.9909"/>
</g>
</g>
</svg>
